<svg xmlns="http://www.w3.org/2000/svg" version="1.1" xmlns:xlink="http://www.w3.org/1999/xlink" viewBox="0 0 14.146292344151673 5.7117279180175435"><g transform="matrix(1,0,0,1,4.178260960508954,1.8441139590087718)"><rect width="14.146292344151673" height="14.146292344151673" x="-4.178260960508954" y="-6.0613961720758365" fill="#ffffff"></rect><g clip-path="url(#SvgjsClipPath1002)"><g clip-path="url(#SvgjsClipPath1000ab57ceea-c48d-457a-97e7-5ed6d93acfb8)"><path d=" M -1.9788866583759244 1.317459538531762 C -1.9711894379494193 1.3619149136481055 -1.944798967915689 1.3606058625551627 -1.9062081416957295 1.3559980027080034 C -1.5463761772675604 1.3131658509469093 -1.181150922336466 1.5172207353148621 -1.0851189341581682 1.8521807289771146 C -1.0027010773464773 2.1396483489873948 -1.1314069808046328 2.433556500374956 -1.4057840898854832 2.581217463658925 C -1.4515485160947703 2.6058276242062535 -1.4990408897467413 2.62656299351847 -1.5486277451474224 2.641224365759432 C -1.5711434239460413 2.6478743453115827 -1.5760130940117898 2.6538436182954017 -1.5685776838038727 2.6768305554874807 C -1.5472139699670435 2.7430161787466787 -1.5295679612341717 2.810458491055101 -1.5087802298782373 2.8768535624891705 C -1.5023396985009578 2.8974318456702335 -1.506528661998376 2.9075377201077544 -1.524750653212142 2.9199998865125707 C -1.7356126032633987 3.0643620410423242 -1.9684666116760976 3.1364645752416243 -2.2237839368436987 3.1339511971431735 C -2.787723147683539 3.1283484584653776 -3.3043794330462783 2.709137936461315 -3.419890101487568 2.1575038058951383 C -3.4826721919051136 1.857783467654911 -3.4219845832362767 1.573876466617435 -3.2845342184772623 1.3041072173837438 C -3.1565613836311557 1.0529788557135602 -2.979315865646675 0.8377708560337329 -2.7913361287000615 0.630574249042716 C -2.745519340447057 0.5800448768551167 -2.6965608295709886 0.5323430550282742 -2.649068455919017 0.4833321821084884 C -2.645507836946212 0.5015541733222548 -2.658074727438465 0.5140163397270721 -2.665510137646381 0.5281017294871388 C -2.796834143290422 0.777921040064379 -2.9139680350869606 1.033657261581722 -2.982195778051149 1.3089245254057735 C -3.003507129844261 1.3949553632339866 -3.0272271356483884 1.481195649237071 -3.021572034926874 1.5715201746501373 C -3.038066078697956 1.6094302943017664 -3.055397915168521 1.6470262416910886 -3.070949442152684 1.68535525769246 C -3.2641130214273515 2.161535683261402 -3.088333640666967 2.722385533521898 -2.5425116969534574 2.925497901102931 C -2.270909776189646 3.02655664547813 -2.003287370748381 3.004198052810664 -1.7453519433948939 2.872874047166624 C -1.6452880778503316 2.821925778629282 -1.6467018530307098 2.8207738136674925 -1.6793757683105672 2.7148977612702643 C -1.6871777128245073 2.6897116182420406 -1.6942989507701172 2.681176605116052 -1.7248783843012656 2.6856797408757753 C -1.9019668161545935 2.711860762734635 -2.074866284510504 2.694528926264071 -2.237921688647482 2.6172949117804345 C -2.472556006546584 2.5061302929677156 -2.65519481503399 2.271495975068614 -2.593826499796823 1.9482650791991307 C -2.5453392473142147 1.6928953919878127 -2.383173997920437 1.526436455009182 -2.1520479369504226 1.4215029193988713 C -2.0938213443363183 1.3950600873214232 -2.0930882757242704 1.3967880347641077 -2.108692164752151 1.3323303589475948 C -2.0654411166413147 1.3273559647944115 -2.0221377064867605 1.322329208597511 -1.978886658375924 1.3173548144443272 Z M -1.7284390032740713 2.5618958695270866 C -1.735246068957375 2.540217983427951 -1.7409535317226064 2.5221530783453368 -1.7465562704004027 2.5040358112190058 C -1.8208580104358472 2.26536961595364 -1.8958404570396215 2.0269128688631453 -1.9687807839384048 1.7878277772480373 C -1.9792531926819488 1.753583000656649 -1.9912441006933064 1.7471424692793691 -2.0232896714485507 1.7629034444384029 C -2.069944252401039 1.7857856575430466 -2.116337023134939 1.808458422472819 -2.1575459515407838 1.8406087173154992 C -2.36338114539514 2.001255467441463 -2.375843311799957 2.28720458818393 -2.1833604390936197 2.440887186495437 C -2.0503608480506124 2.547077411154972 -1.8957357329521858 2.5709021410465347 -1.728386641230354 2.5618958695270875 Z M -1.796928556456848 1.720333102895897 C -1.8043639666647642 1.720333102895897 -1.8117993768726812 1.7206996372019214 -1.819182425036879 1.7202807408521792 C -1.854840976808646 1.718290983190906 -1.8630094556286105 1.7316433043389245 -1.8507567373986642 1.7659928050177485 C -1.8309638848733663 1.821706019533402 -1.8159359783263807 1.8790948194480228 -1.7983423316372265 1.9355934646194426 C -1.7394350324547918 2.124882252658999 -1.6804230091849224 2.3141710406985547 -1.6207826413904398 2.503302742606958 C -1.6159653333684094 2.518487735285097 -1.6204684691281337 2.5420506549580706 -1.5861189684493093 2.531473522127092 C -1.3626901279058004 2.4627221587257253 -1.2486455966886063 2.2390315079636274 -1.3297544024073535 2.0237187841963644 C -1.3974061628906473 1.8441693362883036 -1.5836055903508583 1.7231082912129356 -1.796823832369413 1.7202807408521783 Z" fill="#09250f" transform="matrix(1,0,0,1,0,0)" fill-rule="nonzero"></path></g><g clip-path="url(#SvgjsClipPath1000ab57ceea-c48d-457a-97e7-5ed6d93acfb8)"><path d=" M -1.9788866583759244 1.317459538531762 C -2.0221377064867605 1.3224339326849452 -2.065441116641315 1.3274606888818463 -2.108692164752151 1.33243508303503 C -2.1203689005012025 1.312746954597167 -2.109320509276764 1.2689722860491537 -2.1587502785462913 1.291121430541749 C -2.3350009177001354 1.3699786683806348 -2.4900449291483033 1.4762736171276056 -2.6102681815241877 1.6296944052205238 C -2.6962466573086834 1.7393928868091464 -2.7586098513764874 1.8627054997643764 -2.7687680878577248 2.0006794849605676 C -2.788299130164434 2.265003081647616 -2.682684887985794 2.4804728915460323 -2.4824524328092337 2.6511207920220805 C -2.4488360007424577 2.6797628299356733 -2.4139105175827393 2.70693873062517 -2.36955986655383 2.742963816702961 C -2.3947983716257712 2.7357902167136334 -2.4076794343803303 2.7329626663528765 -2.4200368766977123 2.7285118926368703 C -2.6436751654160924 2.647141276699535 -2.786832992940338 2.4853425616117812 -2.8610823709320643 2.265317253909923 C -2.953658464224993 1.9909401448290718 -2.894908251173711 1.7346803028745519 -2.741278014905922 1.4970089864398222 C -2.615294937721089 1.3021174597224696 -2.44213365914659 1.1565509781872094 -2.244152771849892 1.0394170863906707 C -2.219490249258846 1.024860438237145 -2.2104839777393983 1.0138644090564235 -2.221584731007555 0.9849081988805242 C -2.2416917557951592 0.9324937931190871 -2.2578716273039348 0.8785085260461178 -2.2742609469875807 0.8247327071480202 C -2.2826912360261336 0.7971379101087821 -2.2909644389335333 0.7861418809280607 -2.317407271010982 0.811118575781413 C -2.4063180212436697 0.8950549318609176 -2.503816146646064 0.9691472237214904 -2.5938788618405413 1.0520887009703588 C -2.7607566951689138 1.2058236613255835 -2.9089412788900604 1.3737487355283096 -3.0215196728831577 1.571572536693855 C -3.0271747736046715 1.4812480112807889 -3.0034547678005445 1.395007725277704 -2.9821434160074327 1.3089768874494914 C -2.913915673043244 1.033709623625439 -2.7968341432904227 0.7779734021080966 -2.6654577756026643 0.5281540915308562 C -2.658022365394748 0.5140687017707897 -2.645507836946213 0.5016065353659724 -2.6490160938753005 0.483384544152206 C -2.5958162574580967 0.4295040011666724 -2.543820748046402 0.3743667691319137 -2.4888929641865136 0.32237125972021796 C -2.466953267868789 0.3016358904080012 -2.464492251814056 0.2850371225494839 -2.474336316032988 0.25681398098563313 C -2.585239124627118 -0.061704330949255315 -2.5836159012718687 -0.37870414361633 -2.44972615548566 -0.6902583037367618 C -2.3732252096140716 -0.8683939764644439 -2.2565102141672746 -1.0130179412127855 -2.0775891107838262 -1.100514916265095 C -2.0413545765311647 -1.118265649085402 -2.0210381035686895 -1.1129770826699121 -1.9971086495896915 -1.0798842710403134 C -1.8701830556179388 -0.9043667004985171 -1.7890742498991914 -0.7098940701309067 -1.7591231608926559 -0.4961522076751751 C -1.714510699645159 -0.1777909818714397 -1.7562956105318992 0.1247569067295442 -1.9422332277735215 0.3965682756682267 C -2.008314126945284 0.49317624632741963 -2.0841867282922593 0.581982272472672 -2.1663427748853614 0.6651855599401286 C -2.1785954931153078 0.6775953643012282 -2.1810565091700407 0.6826221204981291 -2.1743018055304546 0.70005868105613 C -2.1481207836715948 0.7677104415394238 -2.1216779515941466 0.8358334604161772 -2.103665408555251 0.9059462369542033 C -2.0930882757242717 0.9471028033163311 -2.079683592532535 0.9479405960158143 -2.0463813327280658 0.932703241293958 C -1.8717539169294708 0.8526416764495648 -1.7073370996558312 0.7552482751346066 -1.5499891582840843 0.6454450694585483 C -1.53951674954054 0.6381667453817854 -1.5308770123271167 0.6263329235015807 -1.5109270736706653 0.6271183541573464 C -1.526321514523675 0.6809465350991621 -1.5503033305463898 0.7292243394068998 -1.5752276633560245 0.7770832473648954 C -1.6493199552165976 0.9195080062770928 -1.745142495220025 1.0444962046312896 -1.8720680891917771 1.1441411738261096 C -1.8872007198261982 1.156027357750032 -1.9041660219907388 1.1656096117503754 -1.9198222730623373 1.176919813193402 C -1.9457414847026084 1.1956130628006283 -1.9899874116440817 1.1976551825056194 -1.9978417182017394 1.2285487882990738 C -2.00449169775389 1.2548868962890867 -1.986164982452688 1.2876131736126613 -1.978886658375925 1.3175119005754794 Z M -1.977996503632723 -0.46792906611132423 C -1.9754307634905548 -0.5269934514249118 -1.9857460861029457 -0.5863196469570882 -2.00470114592876 -0.6447556877460633 C -2.0133932451859016 -0.6715650541295359 -2.0239180159731633 -0.6750209490149053 -2.0489470728702335 -0.661459179692016 C -2.1562892624915584 -0.6033896732090648 -2.23409925945609 -0.5176730076431578 -2.2887128710536713 -0.41006900780324407 C -2.37552913953765 -0.2390545730211716 -2.3914472008278373 -0.061547244818102254 -2.3376190198860214 0.1229765972431418 C -2.3265182666178648 0.1610438030259238 -2.3158364096994495 0.146853689178422 -2.2989758316223443 0.12920768044555042 C -2.229229589390342 0.05616262945933159 -2.162729793868838 -0.01976233393136173 -2.1052886319104998 -0.10291325935510054 C -2.029992013044419 -0.21187867233167523 -1.973336281741846 -0.3281224093850127 -1.9780488656764403 -0.4678767040676063 Z" fill="#4caf7a" transform="matrix(1,0,0,1,0,0)" fill-rule="nonzero"></path></g><g clip-path="url(#SvgjsClipPath1000ab57ceea-c48d-457a-97e7-5ed6d93acfb8)"><path d=" M -0.8612711972649172 0.11239946441216242 C -0.9395000905791902 0.1546032716486445 -1.0165246568879551 0.1992157328961417 -1.096533859688631 0.23775419707238332 C -1.1251758976022237 0.25152541457014355 -1.1310928085423257 0.2669722174668707 -1.130988084454891 0.29514299698700386 C -1.1302026537991248 0.5181529411807719 -1.1304121019739952 0.7411628853745398 -1.130988084454891 0.9641728295683076 C -1.1314593428483501 1.1302128701971965 -1.2691715178259528 1.2973525137441573 -1.4311796810885773 1.3283508436250473 C -1.4924432722383094 1.3400799414178166 -1.5507745889398492 1.3345295647837376 -1.594496895444145 1.2832671239840907 C -1.6371719610740862 1.2332613722336687 -1.632616463270645 1.1768150891059663 -1.611933456002146 1.1193215651039108 C -1.5629225830823605 0.9832849755252753 -1.4146332752737787 0.8840065406364788 -1.2709518273123557 0.8959974486478364 C -1.2334606040104688 0.8991391712708998 -1.2378590156827567 0.8812313523194395 -1.237911377726475 0.8581920530836427 C -1.2386444463385229 0.5087801353552996 -1.2385397222510877 0.1594205796706747 -1.240529479912361 -0.18999133805766855 C -1.2407389280872314 -0.2230841496872673 -1.230947225912018 -0.2398923657206552 -1.2021481018672722 -0.2549202722676407 C -0.9929617372149822 -0.36404277137536867 -0.7847178893496114 -0.47484085588206326 -0.5761598692219345 -0.5851153199515808 C -0.5872606224900911 -0.5243753492390261 -0.6227097260869874 -0.47347944274540255 -0.6437592676615105 -0.4167713493991122 C -0.6658036880666707 -0.35739279182321815 -0.7063319099041858 -0.30518783423665163 -0.71219645880057 -0.23963055550206647 C -0.8409023622587255 -0.17276422567453864 -0.9696606277605975 -0.10600261993444615 -1.0982618071313173 -0.03892684193204743 C -1.1148082129461163 -0.030287104718623725 -1.1332396523347534 -0.02395129742877966 -1.131825877154375 0.0019679142114914505 C -1.1297837574493843 0.038307172551588886 -1.1313022567171975 0.07490824111027505 -1.1313022567171975 0.1194683403140544 C -1.0215514130848575 0.0630220571863529 -0.9192359796604337 0.010450565293762093 -0.8169205462360094 -0.0421732886425461 C -0.815663857186784 -0.022485160204683385 -0.8225756469575232 -0.004734427384376572 -0.8300634192091567 0.012859219304777403 C -0.8437822746631998 0.04500951414745713 -0.8617948177020951 0.07579839585347603 -0.8612711972649181 0.1123994644121622 Z" fill="#4caf7a" transform="matrix(1,0,0,1,0,0)" fill-rule="nonzero"></path></g><g clip-path="url(#SvgjsClipPath1000ab57ceea-c48d-457a-97e7-5ed6d93acfb8)"><path d=" M -0.8612711972649172 0.11239946441216242 C -0.8617948177020942 0.07579839585347647 -0.8437299126194806 0.04500951414745735 -0.8300634192091558 0.012859219304777625 C -0.8225756469575223 -0.0047344273843761275 -0.8156638571867831 -0.022485160204683163 -0.8169729082797259 -0.04217328864254588 C -0.7228783157189835 -0.09170778199950846 -0.6287313611145238 -0.14118991331275355 -0.5347414926412175 -0.19098621688830486 C -0.5210226371871749 -0.19826454096506807 -0.5018581291864899 -0.20093500519467167 -0.5016486810116181 -0.22214163290034816 C -0.5012297846618763 -0.2625127686067098 -0.5015439569241829 -0.3029362663567895 -0.5015439569241829 -0.34812471008518153 C -0.5760027830907806 -0.3097956940838109 -0.6441258019675336 -0.27476548683665647 -0.7122488208442865 -0.2396829175457843 C -0.7063319099041845 -0.30524019628036936 -0.6658560501103872 -0.35744515386693587 -0.643811629705227 -0.4168237114428297 C -0.6227620881307034 -0.4734794427454023 -0.5873129845338076 -0.5244277112827436 -0.576212231265651 -0.5851676819952983 C -0.5195564999630782 -0.6157994775701643 -0.4629007686605058 -0.6463789111013125 -0.4023178840791042 -0.6791051884248873 C -0.40137536729218537 -0.6660146774954574 -0.4005899366364192 -0.6604643008613791 -0.4005899366364192 -0.6549662862710184 C -0.4003804884615483 -0.25088839490137627 -0.39943797167462947 0.1532418585119839 -0.4004852125489835 0.5573197498816262 C -0.40090410889872574 0.7156625700840105 -0.520865551056021 0.8662034457724546 -0.668369428208837 0.8997151537517947 C -0.7967087973609681 0.9288284500588466 -0.8749376906752411 0.8442113874110118 -0.8381271739416842 0.7183330343136143 C -0.801997363776457 0.5949156972709491 -0.6644946369737257 0.4824420273652872 -0.530814339362387 0.491814833190759 C -0.5068848853833892 0.493490418589726 -0.5001301817438035 0.48657862881898706 -0.5002349058312388 0.4630680711897308 C -0.5010203364870045 0.2937292218066254 -0.5010726985307219 0.12433801037980263 -0.5001825437875209 -0.04500083900330254 C -0.5000254576563679 -0.07657515136508741 -0.5114927452305484 -0.07076296451242059 -0.5310761495809757 -0.0603952798563121 C -0.6409317173007514 -0.002378135417078875 -0.7512061813702684 0.054905940410106435 -0.8613759213523511 0.11239946441216264 Z" fill="#09250f" transform="matrix(1,0,0,1,0,0)" fill-rule="nonzero"></path></g></g><g><path d=" M 0.20700000000000002 0.058499999999999774 Q 0.228 0.058499999999999774 0.25125000000000003 0.06974999999999976 Q 0.2745 0.08099999999999996 0.28650000000000003 0.09899999999999975 L 0.651 0.6599999999999999 L 0.5760000000000001 0.6569999999999998 L 0.9495 0.09899999999999975 Q 0.978 0.058499999999999774 1.0230000000000001 0.058499999999999774 Q 1.059 0.058499999999999774 1.0875000000000001 0.08399999999999985 Q 1.116 0.10949999999999993 1.116 0.1499999999999999 L 1.116 1.0185 Q 1.116 1.0574999999999999 1.0905 1.0837499999999998 Q 1.065 1.1099999999999999 1.0230000000000001 1.1099999999999999 Q 0.981 1.1099999999999999 0.95475 1.0837499999999998 Q 0.9285 1.0574999999999999 0.9285 1.0185 L 0.9285 0.31199999999999983 L 0.987 0.3254999999999999 L 0.681 0.7919999999999998 Q 0.6675 0.8084999999999999 0.64725 0.8204999999999999 Q 0.627 0.8324999999999998 0.606 0.8309999999999998 Q 0.5865 0.8324999999999998 0.56625 0.8204999999999999 Q 0.546 0.8084999999999999 0.5325 0.7919999999999998 L 0.246 0.33899999999999986 L 0.28500000000000003 0.25949999999999984 L 0.28500000000000003 1.0185 Q 0.28500000000000003 1.0574999999999999 0.261 1.0837499999999998 Q 0.23700000000000002 1.1099999999999999 0.198 1.1099999999999999 Q 0.1605 1.1099999999999999 0.1365 1.0837499999999998 Q 0.1125 1.0574999999999999 0.1125 1.0185 L 0.1125 0.1499999999999999 Q 0.1125 0.11249999999999982 0.14025 0.08549999999999991 Q 0.168 0.058499999999999774 0.20700000000000002 0.058499999999999774 M 1.6964545898437502 1.1249999999999998 Q 1.5689545898437502 1.1249999999999998 1.4752045898437502 1.07175 Q 1.3814545898437502 1.0185 1.3312045898437503 0.9269999999999998 Q 1.2809545898437502 0.8354999999999999 1.2809545898437502 0.7199999999999999 Q 1.2809545898437502 0.5849999999999999 1.3357045898437503 0.4897499999999999 Q 1.3904545898437501 0.39449999999999985 1.4789545898437502 0.3434999999999998 Q 1.5674545898437502 0.29249999999999987 1.6664545898437502 0.29249999999999987 Q 1.7429545898437502 0.29249999999999987 1.8112045898437503 0.32399999999999984 Q 1.8794545898437502 0.3554999999999998 1.9319545898437502 0.4102499999999999 Q 1.9844545898437502 0.46499999999999986 2.0152045898437505 0.5369999999999998 Q 2.0459545898437503 0.6089999999999999 2.0459545898437503 0.69 Q 2.0444545898437503 0.7259999999999999 2.01745458984375 0.7484999999999999 Q 1.9904545898437502 0.7709999999999999 1.9544545898437502 0.7709999999999999 L 1.3814545898437502 0.7709999999999999 L 1.3364545898437503 0.6209999999999999 L 1.88695458984375 0.6209999999999999 L 1.8539545898437502 0.6509999999999998 L 1.8539545898437502 0.6104999999999998 Q 1.8509545898437503 0.5669999999999998 1.8232045898437503 0.5324999999999999 Q 1.7954545898437502 0.4979999999999999 1.7542045898437504 0.4777499999999999 Q 1.7129545898437502 0.4574999999999999 1.6664545898437502 0.4574999999999999 Q 1.6214545898437502 0.4574999999999999 1.58245458984375 0.4694999999999999 Q 1.5434545898437502 0.4814999999999998 1.5149545898437502 0.5099999999999999 Q 1.4864545898437502 0.5384999999999999 1.4699545898437503 0.5864999999999999 Q 1.4534545898437503 0.6344999999999998 1.4534545898437503 0.7079999999999999 Q 1.4534545898437503 0.7889999999999999 1.4872045898437503 0.8452499999999998 Q 1.5209545898437502 0.9014999999999999 1.5742045898437502 0.9307499999999999 Q 1.6274545898437502 0.9599999999999999 1.6874545898437503 0.9599999999999999 Q 1.7429545898437502 0.9599999999999999 1.7759545898437503 0.9509999999999998 Q 1.8089545898437502 0.9419999999999998 1.8292045898437501 0.9292499999999999 Q 1.8494545898437502 0.9164999999999999 1.8659545898437502 0.9074999999999999 Q 1.8929545898437503 0.8939999999999999 1.9169545898437503 0.8939999999999999 Q 1.9499545898437503 0.8939999999999999 1.9717045898437502 0.9164999999999999 Q 1.9934545898437501 0.9389999999999998 1.9934545898437501 0.9689999999999999 Q 1.9934545898437501 1.0094999999999998 1.9514545898437503 1.0425 Q 1.9124545898437502 1.0755 1.8419545898437502 1.10025 Q 1.7714545898437501 1.1249999999999998 1.6964545898437502 1.1249999999999998 M 2.390980224609375 1.0185 Q 2.390980224609375 1.0574999999999999 2.364730224609375 1.0837499999999998 Q 2.338480224609375 1.1099999999999999 2.299480224609375 1.1099999999999999 Q 2.261980224609375 1.1099999999999999 2.236480224609375 1.0837499999999998 Q 2.210980224609375 1.0574999999999999 2.210980224609375 1.0185 L 2.210980224609375 0.09149999999999991 Q 2.210980224609375 0.05249999999999977 2.237230224609375 0.026249999999999885 Q 2.263480224609375 -2.220446049250313e-16 2.302480224609375 -2.220446049250313e-16 Q 2.341480224609375 -2.220446049250313e-16 2.366230224609375 0.026249999999999885 Q 2.390980224609375 0.05249999999999977 2.390980224609375 0.09149999999999991 L 2.390980224609375 1.0185 M 3.356994873046875 0.7094999999999998 Q 3.356994873046875 0.8324999999999998 3.3022448730468748 0.9262499999999999 Q 3.247494873046875 1.0199999999999998 3.155244873046875 1.0724999999999998 Q 3.062994873046875 1.1249999999999998 2.948994873046875 1.1249999999999998 Q 2.834994873046875 1.1249999999999998 2.742744873046875 1.0724999999999998 Q 2.650494873046875 1.0199999999999998 2.595744873046875 0.9262499999999999 Q 2.540994873046875 0.8324999999999998 2.540994873046875 0.7094999999999998 Q 2.540994873046875 0.5864999999999999 2.595744873046875 0.4927499999999999 Q 2.650494873046875 0.3989999999999999 2.742744873046875 0.3457499999999999 Q 2.834994873046875 0.29249999999999987 2.948994873046875 0.29249999999999987 Q 3.062994873046875 0.29249999999999987 3.155244873046875 0.3457499999999999 Q 3.247494873046875 0.3989999999999999 3.3022448730468748 0.4927499999999999 Q 3.356994873046875 0.5864999999999999 3.356994873046875 0.7094999999999998 M 3.176994873046875 0.7094999999999998 Q 3.176994873046875 0.6329999999999998 3.146244873046875 0.5767499999999999 Q 3.115494873046875 0.5204999999999999 3.063744873046875 0.4889999999999999 Q 3.011994873046875 0.4574999999999999 2.948994873046875 0.4574999999999999 Q 2.885994873046875 0.4574999999999999 2.834244873046875 0.4889999999999999 Q 2.782494873046875 0.5204999999999999 2.751744873046875 0.5767499999999999 Q 2.720994873046875 0.6329999999999998 2.720994873046875 0.7094999999999998 Q 2.720994873046875 0.7844999999999999 2.751744873046875 0.8407499999999999 Q 2.782494873046875 0.8969999999999999 2.834244873046875 0.9284999999999999 Q 2.885994873046875 0.9599999999999999 2.948994873046875 0.9599999999999999 Q 3.011994873046875 0.9599999999999999 3.063744873046875 0.9284999999999999 Q 3.115494873046875 0.8969999999999999 3.146244873046875 0.8407499999999999 Q 3.176994873046875 0.7844999999999999 3.176994873046875 0.7094999999999998 M 3.928515380859375 0.29249999999999987 Q 4.048515380859375 0.29249999999999987 4.105515380859375 0.35024999999999984 Q 4.162515380859375 0.4079999999999998 4.180515380859375 0.49949999999999983 L 4.155015380859375 0.4859999999999999 L 4.167015380859375 0.46199999999999986 Q 4.185015380859375 0.4274999999999999 4.222515380859375 0.3877499999999998 Q 4.260015380859375 0.34799999999999986 4.3132653808593755 0.3202499999999998 Q 4.366515380859375 0.29249999999999987 4.432515380859375 0.29249999999999987 Q 4.540515380859375 0.29249999999999987 4.596765380859375 0.33899999999999986 Q 4.653015380859375 0.38549999999999984 4.674015380859375 0.4627499999999999 Q 4.695015380859375 0.5399999999999998 4.695015380859375 0.6344999999999998 L 4.695015380859375 1.0185 Q 4.695015380859375 1.0574999999999999 4.669515380859375 1.0837499999999998 Q 4.644015380859375 1.1099999999999999 4.605015380859375 1.1099999999999999 Q 4.566015380859375 1.1099999999999999 4.540515380859375 1.0837499999999998 Q 4.515015380859375 1.0574999999999999 4.515015380859375 1.0185 L 4.515015380859375 0.6344999999999998 Q 4.515015380859375 0.5849999999999999 4.503015380859375 0.5452499999999999 Q 4.491015380859375 0.5054999999999998 4.459515380859375 0.4814999999999998 Q 4.4280153808593745 0.4574999999999999 4.369515380859375 0.4574999999999999 Q 4.3125153808593755 0.4574999999999999 4.272015380859375 0.4814999999999998 Q 4.231515380859375 0.5054999999999998 4.211265380859375 0.5452499999999999 Q 4.191015380859375 0.5849999999999999 4.191015380859375 0.6344999999999998 L 4.191015380859375 1.0185 Q 4.191015380859375 1.0574999999999999 4.165515380859375 1.0837499999999998 Q 4.140015380859375 1.1099999999999999 4.101015380859375 1.1099999999999999 Q 4.062015380859375 1.1099999999999999 4.036515380859375 1.0837499999999998 Q 4.011015380859375 1.0574999999999999 4.011015380859375 1.0185 L 4.011015380859375 0.6344999999999998 Q 4.011015380859375 0.5849999999999999 3.999015380859375 0.5452499999999999 Q 3.987015380859375 0.5054999999999998 3.9555153808593753 0.4814999999999998 Q 3.924015380859375 0.4574999999999999 3.865515380859375 0.4574999999999999 Q 3.808515380859375 0.4574999999999999 3.768015380859375 0.4814999999999998 Q 3.727515380859375 0.5054999999999998 3.707265380859375 0.5452499999999999 Q 3.687015380859375 0.5849999999999999 3.687015380859375 0.6344999999999998 L 3.687015380859375 1.0185 Q 3.687015380859375 1.0574999999999999 3.661515380859375 1.0837499999999998 Q 3.636015380859375 1.1099999999999999 3.597015380859375 1.1099999999999999 Q 3.558015380859375 1.1099999999999999 3.532515380859375 1.0837499999999998 Q 3.507015380859375 1.0574999999999999 3.507015380859375 1.0185 L 3.507015380859375 0.3989999999999999 Q 3.507015380859375 0.3599999999999999 3.532515380859375 0.3337499999999999 Q 3.558015380859375 0.3074999999999999 3.597015380859375 0.3074999999999999 Q 3.636015380859375 0.3074999999999999 3.661515380859375 0.3337499999999999 Q 3.687015380859375 0.3599999999999999 3.687015380859375 0.3989999999999999 L 3.687015380859375 0.4634999999999999 L 3.664515380859375 0.45899999999999985 Q 3.678015380859375 0.4334999999999999 3.702015380859375 0.4042499999999999 Q 3.726015380859375 0.3749999999999999 3.760515380859375 0.3494999999999998 Q 3.795015380859375 0.32399999999999984 3.837015380859375 0.3082499999999999 Q 3.879015380859375 0.29249999999999987 3.928515380859375 0.29249999999999987 M 5.059510986328125 1.0185 Q 5.059510986328125 1.0574999999999999 5.034010986328125 1.0837499999999998 Q 5.008510986328125 1.1099999999999999 4.969510986328125 1.1099999999999999 Q 4.930510986328125 1.1099999999999999 4.905010986328125 1.0837499999999998 Q 4.879510986328125 1.0574999999999999 4.879510986328125 1.0185 L 4.879510986328125 0.3989999999999999 Q 4.879510986328125 0.3599999999999999 4.905010986328125 0.3337499999999999 Q 4.930510986328125 0.3074999999999999 4.969510986328125 0.3074999999999999 Q 5.008510986328125 0.3074999999999999 5.034010986328125 0.3337499999999999 Q 5.059510986328125 0.3599999999999999 5.059510986328125 0.3989999999999999 L 5.059510986328125 1.0185 M 4.968010986328125 0.20999999999999985 Q 4.917010986328125 0.20999999999999985 4.896010986328125 0.1934999999999999 Q 4.875010986328125 0.17699999999999982 4.875010986328125 0.1349999999999999 L 4.875010986328125 0.10649999999999982 Q 4.875010986328125 0.06299999999999994 4.898260986328125 0.04724999999999979 Q 4.921510986328125 0.03149999999999986 4.969510986328125 0.03149999999999986 Q 5.022010986328125 0.03149999999999986 5.043010986328125 0.04799999999999982 Q 5.064010986328125 0.06449999999999978 5.064010986328125 0.10649999999999982 L 5.064010986328125 0.1349999999999999 Q 5.064010986328125 0.17849999999999988 5.041510986328125 0.1942499999999998 Q 5.019010986328125 0.20999999999999985 4.968010986328125 0.20999999999999985 M 5.26054541015625 0.3074999999999999 Q 5.30404541015625 0.3074999999999999 5.33404541015625 0.34499999999999986 L 5.83504541015625 0.9674999999999998 Q 5.85454541015625 0.9914999999999998 5.85454541015625 1.0214999999999999 Q 5.85454541015625 1.059 5.82604541015625 1.0859999999999999 Q 5.79754541015625 1.1129999999999998 5.76304541015625 1.1129999999999998 Q 5.71954541015625 1.1129999999999998 5.68954541015625 1.0739999999999998 L 5.18854541015625 0.4514999999999999 Q 5.16904541015625 0.4274999999999999 5.16904541015625 0.39749999999999985 Q 5.16904541015625 0.3584999999999998 5.19679541015625 0.33299999999999985 Q 5.22454541015625 0.3074999999999999 5.26054541015625 0.3074999999999999 M 5.26204541015625 1.1115 Q 5.23204541015625 1.1115 5.20279541015625 1.08825 Q 5.17354541015625 1.065 5.17354541015625 1.0319999999999998 Q 5.17354541015625 1.0019999999999998 5.19604541015625 0.9749999999999999 L 5.42554541015625 0.6944999999999999 L 5.51554541015625 0.8444999999999998 L 5.33404541015625 1.0739999999999998 Q 5.30554541015625 1.1115 5.26204541015625 1.1115 M 5.76154541015625 0.3074999999999999 Q 5.79754541015625 0.3074999999999999 5.82229541015625 0.3322499999999998 Q 5.84704541015625 0.3569999999999999 5.84704541015625 0.38849999999999985 Q 5.84704541015625 0.40349999999999986 5.84254541015625 0.41849999999999987 Q 5.83804541015625 0.4334999999999999 5.82604541015625 0.44699999999999984 L 5.59954541015625 0.7229999999999999 L 5.50504541015625 0.5924999999999999 L 5.68954541015625 0.34799999999999986 Q 5.71954541015625 0.3074999999999999 5.76154541015625 0.3074999999999999" fill="#09250f" fill-rule="nonzero"></path></g><g><path d=" M 0.6675 1.4962499999999999 Q 0.6795 1.4962499999999999 0.689625 1.5044999999999997 Q 0.69975 1.5127499999999998 0.69975 1.5277499999999997 Q 0.69975 1.533 0.69825 1.539 L 0.5385 2.004 Q 0.5355 2.013 0.527625 2.0178749999999996 Q 0.51975 2.02275 0.5115000000000001 2.0235 Q 0.5025000000000001 2.0235 0.49425 2.0186249999999997 Q 0.486 2.01375 0.4815 2.004 L 0.35625 1.7009999999999998 L 0.36225 1.70325 L 0.23775000000000002 2.004 Q 0.23325 2.01375 0.225 2.0186249999999997 Q 0.21675 2.0235 0.20775000000000002 2.0235 Q 0.1995 2.02275 0.19162500000000002 2.0178749999999996 Q 0.18375 2.013 0.18075 2.004 L 0.021 1.539 Q 0.0195 1.533 0.0195 1.5284999999999997 Q 0.0195 1.5134999999999998 0.030375 1.5048749999999997 Q 0.04125 1.4962499999999999 0.0525 1.4962499999999999 Q 0.0615 1.4962499999999999 0.06975 1.5014999999999998 Q 0.078 1.5067499999999998 0.081 1.5157499999999997 L 0.22125 1.9297499999999999 L 0.21075 1.9297499999999999 L 0.333 1.6275 Q 0.33675 1.6184999999999998 0.34425 1.6132499999999999 Q 0.35175 1.6079999999999999 0.3615 1.6079999999999999 Q 0.3705 1.6079999999999999 0.378375 1.6132499999999999 Q 0.38625 1.6184999999999998 0.38925 1.6275 L 0.50775 1.92525 L 0.49875 1.9289999999999998 L 0.63825 1.5157499999999997 Q 0.64125 1.5067499999999998 0.6495 1.5014999999999998 Q 0.6577500000000001 1.4962499999999999 0.6675 1.4962499999999999 M 0.9633632812499998 1.6297499999999998 Q 1.0128632812499998 1.6297499999999998 1.0417382812499998 1.651125 Q 1.0706132812499998 1.6724999999999999 1.0829882812499998 1.708125 Q 1.0953632812499998 1.74375 1.0953632812499998 1.7872499999999998 L 1.0953632812499998 1.9927499999999998 Q 1.0953632812499998 2.0055 1.0867382812499997 2.0145 Q 1.0781132812499998 2.0235 1.0653632812499998 2.0235 Q 1.0526132812499998 2.0235 1.0439882812499999 2.0145 Q 1.0353632812499998 2.0055 1.0353632812499998 1.9927499999999998 L 1.0353632812499998 1.7872499999999998 Q 1.0353632812499998 1.7587499999999998 1.02711328125 1.7358749999999998 Q 1.0188632812499998 1.7129999999999999 0.9997382812499997 1.6991249999999998 Q 0.9806132812499998 1.68525 0.9476132812499998 1.68525 Q 0.9168632812499998 1.68525 0.8913632812499999 1.6991249999999998 Q 0.8658632812499998 1.7129999999999999 0.8508632812499999 1.7358749999999998 Q 0.8358632812499999 1.7587499999999998 0.8358632812499999 1.7872499999999998 L 0.8358632812499999 1.9927499999999998 Q 0.8358632812499999 2.0055 0.8272382812499999 2.0145 Q 0.8186132812499998 2.0235 0.8058632812499998 2.0235 Q 0.7931132812499998 2.0235 0.7844882812499998 2.0145 Q 0.7758632812499998 2.0055 0.7758632812499998 1.9927499999999998 L 0.7758632812499998 1.4985 Q 0.7758632812499998 1.48575 0.7844882812499998 1.4771249999999998 Q 0.7931132812499998 1.4684999999999997 0.8058632812499998 1.4684999999999997 Q 0.8193632812499998 1.4684999999999997 0.8276132812499998 1.4771249999999998 Q 0.8358632812499999 1.48575 0.8358632812499999 1.4985 L 0.8358632812499999 1.7227499999999998 L 0.8208632812499999 1.7392499999999997 Q 0.8246132812499998 1.71975 0.8373632812499998 1.6998749999999998 Q 0.8501132812499999 1.6799999999999997 0.8696132812499998 1.6642499999999998 Q 0.8891132812499998 1.6484999999999999 0.9131132812499998 1.639125 Q 0.9371132812499998 1.6297499999999998 0.9633632812499998 1.6297499999999998 M 1.3829692382812497 2.0309999999999997 Q 1.3229692382812497 2.0309999999999997 1.2779692382812495 2.0055 Q 1.2329692382812496 1.9799999999999998 1.2082192382812496 1.9353749999999998 Q 1.1834692382812497 1.89075 1.1834692382812497 1.83225 Q 1.1834692382812497 1.767 1.2093442382812496 1.720875 Q 1.2352192382812497 1.67475 1.2764692382812497 1.650375 Q 1.3177192382812497 1.626 1.3642192382812497 1.626 Q 1.3994692382812497 1.626 1.4313442382812496 1.63875 Q 1.4632192382812497 1.6515 1.4883442382812495 1.6758749999999998 Q 1.5134692382812496 1.7002499999999998 1.5284692382812497 1.7343749999999998 Q 1.5434692382812496 1.7685 1.5442192382812496 1.8104999999999998 Q 1.5434692382812496 1.8224999999999998 1.5344692382812497 1.8307499999999999 Q 1.5254692382812496 1.839 1.5134692382812496 1.839 L 1.2172192382812497 1.839 L 1.2037192382812496 1.7872499999999998 L 1.4924692382812497 1.7872499999999998 L 1.4804692382812497 1.7977499999999997 L 1.4804692382812497 1.7812499999999998 Q 1.4782192382812496 1.7504999999999997 1.4605942382812496 1.7283749999999998 Q 1.4429692382812496 1.7062499999999998 1.4174692382812497 1.6942499999999998 Q 1.3919692382812496 1.6822499999999998 1.3642192382812497 1.6822499999999998 Q 1.3417192382812497 1.6822499999999998 1.3195942382812496 1.6901249999999999 Q 1.2974692382812496 1.698 1.2798442382812496 1.7156249999999997 Q 1.2622192382812496 1.73325 1.2517192382812496 1.761 Q 1.2412192382812497 1.7887499999999998 1.2412192382812497 1.8277499999999998 Q 1.2412192382812497 1.8712499999999999 1.2588442382812497 1.9042499999999998 Q 1.2764692382812497 1.93725 1.3079692382812496 1.9563749999999998 Q 1.3394692382812496 1.9754999999999998 1.3807192382812497 1.9754999999999998 Q 1.4077192382812496 1.9754999999999998 1.4272192382812496 1.9687499999999998 Q 1.4467192382812497 1.9619999999999997 1.4605942382812496 1.9518749999999998 Q 1.4744692382812497 1.9417499999999999 1.4842192382812496 1.93125 Q 1.4939692382812497 1.9244999999999999 1.5037192382812496 1.9244999999999999 Q 1.5142192382812496 1.9244999999999999 1.5217192382812497 1.932 Q 1.5292192382812497 1.9394999999999998 1.5292192382812497 1.95 Q 1.5292192382812497 1.9627499999999998 1.5172192382812497 1.9725 Q 1.4954692382812498 1.99575 1.4598442382812498 2.013375 Q 1.4242192382812497 2.0309999999999997 1.3829692382812497 2.0309999999999997 M 1.661613647460937 2.0235 Q 1.6488636474609373 2.0235 1.6402386474609372 2.0145 Q 1.6316136474609373 2.0055 1.6316136474609373 1.9927499999999998 L 1.6316136474609373 1.6657499999999998 Q 1.6316136474609373 1.6529999999999998 1.6402386474609372 1.644375 Q 1.6488636474609373 1.6357499999999998 1.661613647460937 1.6357499999999998 Q 1.6751136474609372 1.6357499999999998 1.6833636474609373 1.644375 Q 1.6916136474609371 1.6529999999999998 1.6916136474609371 1.6657499999999998 L 1.6916136474609371 1.7647499999999998 L 1.6826136474609372 1.7489999999999999 Q 1.6871136474609372 1.72575 1.6987386474609372 1.7036249999999997 Q 1.7103636474609372 1.6814999999999998 1.7283636474609372 1.6638749999999998 Q 1.7463636474609372 1.6462499999999998 1.7696136474609372 1.6361249999999998 Q 1.7928636474609372 1.626 1.8206136474609371 1.626 Q 1.8371136474609373 1.626 1.8509886474609372 1.6338749999999997 Q 1.8648636474609372 1.6417499999999998 1.8648636474609372 1.656 Q 1.8648636474609372 1.6717499999999998 1.8566136474609372 1.67925 Q 1.8483636474609373 1.68675 1.837863647460937 1.68675 Q 1.8281136474609372 1.68675 1.819113647460937 1.6826249999999998 Q 1.8101136474609372 1.6784999999999999 1.796613647460937 1.6784999999999999 Q 1.7778636474609373 1.6784999999999999 1.7594886474609372 1.6886249999999998 Q 1.7411136474609372 1.69875 1.725738647460937 1.7174999999999998 Q 1.7103636474609372 1.7362499999999998 1.7009886474609373 1.7598749999999999 Q 1.6916136474609371 1.7834999999999999 1.6916136474609371 1.8104999999999998 L 1.6916136474609371 1.9927499999999998 Q 1.6916136474609371 2.0055 1.6829886474609372 2.0145 Q 1.6743636474609371 2.0235 1.661613647460937 2.0235 M 2.092509887695312 2.0309999999999997 Q 2.032509887695312 2.0309999999999997 1.9875098876953121 2.0055 Q 1.9425098876953122 1.9799999999999998 1.9177598876953121 1.9353749999999998 Q 1.8930098876953123 1.89075 1.8930098876953123 1.83225 Q 1.8930098876953123 1.767 1.9188848876953122 1.720875 Q 1.9447598876953123 1.67475 1.9860098876953123 1.650375 Q 2.0272598876953123 1.626 2.0737598876953123 1.626 Q 2.1090098876953123 1.626 2.140884887695312 1.63875 Q 2.172759887695312 1.6515 2.197884887695312 1.6758749999999998 Q 2.223009887695312 1.7002499999999998 2.2380098876953123 1.7343749999999998 Q 2.2530098876953124 1.7685 2.2537598876953124 1.8104999999999998 Q 2.2530098876953124 1.8224999999999998 2.244009887695312 1.8307499999999999 Q 2.235009887695312 1.839 2.223009887695312 1.839 L 1.9267598876953123 1.839 L 1.9132598876953122 1.7872499999999998 L 2.2020098876953123 1.7872499999999998 L 2.1900098876953122 1.7977499999999997 L 2.1900098876953122 1.7812499999999998 Q 2.187759887695312 1.7504999999999997 2.1701348876953124 1.7283749999999998 Q 2.152509887695312 1.7062499999999998 2.127009887695312 1.6942499999999998 Q 2.101509887695312 1.6822499999999998 2.0737598876953123 1.6822499999999998 Q 2.0512598876953123 1.6822499999999998 2.0291348876953124 1.6901249999999999 Q 2.0070098876953124 1.698 1.9893848876953122 1.7156249999999997 Q 1.9717598876953122 1.73325 1.9612598876953122 1.761 Q 1.9507598876953123 1.7887499999999998 1.9507598876953123 1.8277499999999998 Q 1.9507598876953123 1.8712499999999999 1.9683848876953123 1.9042499999999998 Q 1.9860098876953123 1.93725 2.0175098876953124 1.9563749999999998 Q 2.0490098876953122 1.9754999999999998 2.0902598876953125 1.9754999999999998 Q 2.117259887695312 1.9754999999999998 2.1367598876953124 1.9687499999999998 Q 2.1562598876953123 1.9619999999999997 2.1701348876953124 1.9518749999999998 Q 2.1840098876953125 1.9417499999999999 2.1937598876953124 1.93125 Q 2.2035098876953123 1.9244999999999999 2.2132598876953122 1.9244999999999999 Q 2.223759887695312 1.9244999999999999 2.2312598876953125 1.932 Q 2.2387598876953123 1.9394999999999998 2.2387598876953123 1.95 Q 2.2387598876953123 1.9627499999999998 2.2267598876953123 1.9725 Q 2.2050098876953124 1.99575 2.1693848876953123 2.013375 Q 2.1337598876953123 2.0309999999999997 2.092509887695312 2.0309999999999997 M 2.589797607421875 1.49775 Q 2.5965476074218747 1.49775 2.604422607421875 1.5014999999999998 Q 2.612297607421875 1.5052499999999998 2.6167976074218746 1.51125 L 2.815547607421875 1.8119999999999998 L 2.789297607421875 1.8112499999999998 L 2.990297607421875 1.51125 Q 3.000047607421875 1.4969999999999999 3.0157976074218746 1.49775 Q 3.027797607421875 1.4985 3.036797607421875 1.5067499999999998 Q 3.045797607421875 1.5149999999999997 3.045797607421875 1.5284999999999997 L 3.045797607421875 1.9927499999999998 Q 3.045797607421875 2.0055 3.036797607421875 2.0145 Q 3.027797607421875 2.0235 3.0142976074218746 2.0235 Q 3.000797607421875 2.0235 2.9917976074218746 2.0145 Q 2.9827976074218747 2.0055 2.9827976074218747 1.9927499999999998 L 2.9827976074218747 1.5855 L 3.001547607421875 1.5892499999999998 L 2.824547607421875 1.8584999999999998 Q 2.8200476074218748 1.8637499999999998 2.813672607421875 1.8675 Q 2.8072976074218747 1.8712499999999999 2.800547607421875 1.8712499999999999 Q 2.7937976074218747 1.8712499999999999 2.787047607421875 1.8675 Q 2.7802976074218746 1.8637499999999998 2.775797607421875 1.8584999999999998 L 2.601047607421875 1.5892499999999998 L 2.6167976074218746 1.56975 L 2.6167976074218746 1.9927499999999998 Q 2.6167976074218746 2.0055 2.6085476074218747 2.0145 Q 2.600297607421875 2.0235 2.587547607421875 2.0235 Q 2.574797607421875 2.0235 2.566922607421875 2.0145 Q 2.5590476074218746 2.0055 2.5590476074218746 1.9927499999999998 L 2.5590476074218746 1.5284999999999997 Q 2.5590476074218746 1.5164999999999997 2.567672607421875 1.5071249999999998 Q 2.576297607421875 1.49775 2.589797607421875 1.49775 M 3.457903564453125 1.6357499999999998 Q 3.4714035644531247 1.6357499999999998 3.479653564453125 1.644375 Q 3.487903564453125 1.6529999999999998 3.487903564453125 1.6657499999999998 L 3.487903564453125 1.8704999999999998 Q 3.487903564453125 1.9462499999999998 3.445528564453125 1.9878749999999998 Q 3.403153564453125 2.0294999999999996 3.327403564453125 2.0294999999999996 Q 3.252403564453125 2.0294999999999996 3.210028564453125 1.9878749999999998 Q 3.1676535644531247 1.9462499999999998 3.1676535644531247 1.8704999999999998 L 3.1676535644531247 1.6657499999999998 Q 3.1676535644531247 1.6529999999999998 3.176278564453125 1.644375 Q 3.184903564453125 1.6357499999999998 3.197653564453125 1.6357499999999998 Q 3.211153564453125 1.6357499999999998 3.219403564453125 1.644375 Q 3.227653564453125 1.6529999999999998 3.227653564453125 1.6657499999999998 L 3.227653564453125 1.8704999999999998 Q 3.227653564453125 1.9214999999999998 3.253903564453125 1.9477499999999999 Q 3.280153564453125 1.9739999999999998 3.327403564453125 1.9739999999999998 Q 3.3761535644531246 1.9739999999999998 3.4020285644531247 1.9477499999999999 Q 3.427903564453125 1.9214999999999998 3.427903564453125 1.8704999999999998 L 3.427903564453125 1.6657499999999998 Q 3.427903564453125 1.6529999999999998 3.4365285644531247 1.644375 Q 3.445153564453125 1.6357499999999998 3.457903564453125 1.6357499999999998 M 3.5782877197265623 1.9619999999999997 Q 3.5715377197265625 1.9522499999999998 3.5722877197265626 1.9413749999999999 Q 3.5730377197265626 1.9304999999999999 3.5850377197265626 1.9222499999999998 Q 3.5925377197265624 1.9169999999999998 3.6026627197265624 1.9177499999999998 Q 3.6127877197265623 1.9184999999999999 3.621037719726562 1.9274999999999998 Q 3.6420377197265625 1.9522499999999998 3.6690377197265622 1.966875 Q 3.6960377197265624 1.9814999999999998 3.7350377197265625 1.9814999999999998 Q 3.7530377197265623 1.9807499999999998 3.7710377197265625 1.9754999999999998 Q 3.7890377197265623 1.9702499999999998 3.8014127197265624 1.9571249999999998 Q 3.8137877197265624 1.944 3.8137877197265624 1.9222499999999998 Q 3.8137877197265624 1.9012499999999999 3.8010377197265623 1.8888749999999999 Q 3.7882877197265623 1.8764999999999998 3.7680377197265624 1.8686249999999998 Q 3.7477877197265625 1.86075 3.7237877197265625 1.85475 Q 3.6990377197265625 1.8479999999999999 3.6750377197265625 1.8393749999999998 Q 3.6510377197265624 1.8307499999999999 3.6319127197265626 1.8176249999999998 Q 3.6127877197265623 1.8044999999999998 3.6011627197265623 1.784625 Q 3.5895377197265623 1.7647499999999998 3.5895377197265623 1.7362499999999998 Q 3.5895377197265623 1.7025 3.6079127197265626 1.6777499999999999 Q 3.6262877197265624 1.6529999999999998 3.6574127197265622 1.6395 Q 3.6885377197265625 1.626 3.7252877197265626 1.626 Q 3.7462877197265625 1.626 3.7691627197265625 1.6308749999999999 Q 3.7920377197265625 1.6357499999999998 3.8137877197265624 1.6473749999999998 Q 3.8355377197265623 1.6589999999999998 3.8520377197265625 1.67925 Q 3.8587877197265623 1.68675 3.8595377197265623 1.698 Q 3.8602877197265624 1.70925 3.8497877197265624 1.7182499999999998 Q 3.8415377197265625 1.7242499999999998 3.831412719726562 1.7234999999999998 Q 3.8212877197265622 1.7227499999999998 3.8145377197265624 1.7159999999999997 Q 3.7987877197265623 1.69725 3.7751627197265623 1.687125 Q 3.7515377197265622 1.6769999999999998 3.7230377197265625 1.6769999999999998 Q 3.7050377197265623 1.6769999999999998 3.6877877197265625 1.6822499999999998 Q 3.6705377197265623 1.6874999999999998 3.6589127197265623 1.6998749999999998 Q 3.6472877197265623 1.7122499999999998 3.6472877197265623 1.734 Q 3.6480377197265623 1.7542499999999999 3.6607877197265624 1.767 Q 3.6735377197265624 1.77975 3.6952877197265623 1.7876249999999998 Q 3.7170377197265623 1.7954999999999999 3.7432877197265624 1.803 Q 3.7672877197265624 1.809 3.7894127197265624 1.8168749999999998 Q 3.8115377197265623 1.8247499999999999 3.8295377197265625 1.8375 Q 3.8475377197265623 1.85025 3.8580377197265623 1.8701249999999998 Q 3.8685377197265622 1.89 3.8685377197265622 1.92 Q 3.8685377197265622 1.9545 3.8490377197265624 1.9796249999999997 Q 3.8295377197265625 2.00475 3.797662719726562 2.0178749999999996 Q 3.7657877197265623 2.0309999999999997 3.7290377197265623 2.0309999999999997 Q 3.6877877197265625 2.0309999999999997 3.6476627197265623 2.01525 Q 3.6075377197265626 1.9994999999999998 3.5782877197265623 1.9619999999999997 M 4.014411987304688 1.9927499999999998 Q 4.014411987304688 2.0055 4.005786987304687 2.0145 Q 3.9971619873046875 2.0235 3.9844119873046875 2.0235 Q 3.9709119873046874 2.0235 3.9626619873046875 2.0145 Q 3.9544119873046872 2.0055 3.9544119873046872 1.9927499999999998 L 3.9544119873046872 1.6597499999999998 Q 3.9544119873046872 1.6469999999999998 3.9630369873046876 1.638375 Q 3.9716619873046874 1.6297499999999998 3.9844119873046875 1.6297499999999998 Q 3.9971619873046875 1.6297499999999998 4.005786987304687 1.638375 Q 4.014411987304688 1.6469999999999998 4.014411987304688 1.6597499999999998 L 4.014411987304688 1.9927499999999998 M 3.9844119873046875 1.5795 Q 3.9656619873046877 1.5795 3.9566619873046873 1.5719999999999998 Q 3.9476619873046874 1.5644999999999998 3.9476619873046874 1.5487499999999998 L 3.9476619873046874 1.53825 Q 3.9476619873046874 1.5225 3.9574119873046874 1.5149999999999997 Q 3.9671619873046873 1.5074999999999998 3.9851619873046875 1.5074999999999998 Q 4.003161987304687 1.5074999999999998 4.012161987304688 1.5149999999999997 Q 4.021161987304687 1.5225 4.021161987304687 1.53825 L 4.021161987304687 1.5487499999999998 Q 4.021161987304687 1.5644999999999998 4.011786987304688 1.5719999999999998 Q 4.002411987304687 1.5795 3.9844119873046875 1.5795 M 4.292293212890624 1.626 Q 4.330543212890625 1.626 4.361293212890624 1.6342499999999998 Q 4.392043212890624 1.6424999999999998 4.410043212890624 1.6567499999999997 Q 4.428043212890625 1.6709999999999998 4.428043212890625 1.6889999999999998 Q 4.428043212890625 1.69875 4.421668212890625 1.7077499999999999 Q 4.415293212890624 1.7167499999999998 4.403293212890625 1.7167499999999998 Q 4.393543212890624 1.7167499999999998 4.387168212890624 1.7129999999999999 Q 4.380793212890625 1.70925 4.375168212890625 1.70325 Q 4.369543212890624 1.69725 4.359793212890625 1.6927499999999998 Q 4.350793212890625 1.6874999999999998 4.333543212890625 1.6844999999999999 Q 4.316293212890624 1.6814999999999998 4.298293212890624 1.6814999999999998 Q 4.257793212890625 1.6814999999999998 4.226293212890624 1.7009999999999998 Q 4.194793212890625 1.7205 4.177168212890624 1.7534999999999998 Q 4.1595432128906245 1.7864999999999998 4.1595432128906245 1.8284999999999998 Q 4.1595432128906245 1.8704999999999998 4.176793212890624 1.9034999999999997 Q 4.194043212890625 1.9364999999999999 4.224793212890624 1.956 Q 4.2555432128906245 1.9754999999999998 4.296043212890624 1.9754999999999998 Q 4.322293212890624 1.9754999999999998 4.337668212890625 1.9709999999999999 Q 4.353043212890625 1.9665 4.364293212890624 1.9605 Q 4.377043212890625 1.9529999999999998 4.384168212890625 1.9454999999999998 Q 4.391293212890624 1.938 4.404043212890625 1.938 Q 4.416793212890624 1.938 4.423543212890625 1.9462499999999998 Q 4.430293212890625 1.9545 4.430293212890625 1.9665 Q 4.430293212890625 1.9799999999999998 4.411543212890624 1.9949999999999999 Q 4.392793212890624 2.01 4.360918212890624 2.0204999999999997 Q 4.329043212890625 2.0309999999999997 4.289293212890625 2.0309999999999997 Q 4.2322932128906245 2.0309999999999997 4.189543212890625 2.004375 Q 4.146793212890625 1.97775 4.123168212890625 1.931625 Q 4.099543212890625 1.8855 4.099543212890625 1.8284999999999998 Q 4.099543212890625 1.7714999999999999 4.123918212890625 1.72575 Q 4.148293212890625 1.6799999999999997 4.191793212890625 1.6529999999999998 Q 4.235293212890625 1.626 4.292293212890624 1.626 M 4.758794311523437 1.49775 Q 4.7655443115234375 1.49775 4.773419311523437 1.5014999999999998 Q 4.781294311523437 1.5052499999999998 4.785794311523437 1.51125 L 4.984544311523437 1.8119999999999998 L 4.958294311523437 1.8112499999999998 L 5.159294311523437 1.51125 Q 5.169044311523437 1.4969999999999999 5.184794311523437 1.49775 Q 5.196794311523437 1.4985 5.205794311523437 1.5067499999999998 Q 5.214794311523437 1.5149999999999997 5.214794311523437 1.5284999999999997 L 5.214794311523437 1.9927499999999998 Q 5.214794311523437 2.0055 5.205794311523437 2.0145 Q 5.196794311523437 2.0235 5.183294311523437 2.0235 Q 5.169794311523437 2.0235 5.160794311523437 2.0145 Q 5.151794311523437 2.0055 5.151794311523437 1.9927499999999998 L 5.151794311523437 1.5855 L 5.170544311523437 1.5892499999999998 L 4.993544311523437 1.8584999999999998 Q 4.989044311523437 1.8637499999999998 4.982669311523437 1.8675 Q 4.9762943115234375 1.8712499999999999 4.969544311523437 1.8712499999999999 Q 4.962794311523437 1.8712499999999999 4.956044311523437 1.8675 Q 4.949294311523437 1.8637499999999998 4.944794311523437 1.8584999999999998 L 4.770044311523437 1.5892499999999998 L 4.785794311523437 1.56975 L 4.785794311523437 1.9927499999999998 Q 4.785794311523437 2.0055 4.777544311523437 2.0145 Q 4.769294311523437 2.0235 4.756544311523437 2.0235 Q 4.743794311523438 2.0235 4.735919311523437 2.0145 Q 4.728044311523437 2.0055 4.728044311523437 1.9927499999999998 L 4.728044311523437 1.5284999999999997 Q 4.728044311523437 1.5164999999999997 4.736669311523437 1.5071249999999998 Q 4.745294311523437 1.49775 4.758794311523437 1.49775 M 5.512150268554687 2.0309999999999997 Q 5.452150268554687 2.0309999999999997 5.4071502685546875 2.0055 Q 5.362150268554688 1.9799999999999998 5.3374002685546875 1.9353749999999998 Q 5.3126502685546875 1.89075 5.3126502685546875 1.83225 Q 5.3126502685546875 1.767 5.338525268554688 1.720875 Q 5.364400268554687 1.67475 5.405650268554687 1.650375 Q 5.446900268554687 1.626 5.493400268554687 1.626 Q 5.528650268554687 1.626 5.560525268554687 1.63875 Q 5.592400268554687 1.6515 5.6175252685546875 1.6758749999999998 Q 5.6426502685546875 1.7002499999999998 5.657650268554687 1.7343749999999998 Q 5.672650268554687 1.7685 5.673400268554687 1.8104999999999998 Q 5.672650268554687 1.8224999999999998 5.6636502685546875 1.8307499999999999 Q 5.654650268554687 1.839 5.6426502685546875 1.839 L 5.346400268554687 1.839 L 5.332900268554687 1.7872499999999998 L 5.621650268554687 1.7872499999999998 L 5.609650268554687 1.7977499999999997 L 5.609650268554687 1.7812499999999998 Q 5.607400268554687 1.7504999999999997 5.589775268554687 1.7283749999999998 Q 5.5721502685546875 1.7062499999999998 5.5466502685546875 1.6942499999999998 Q 5.521150268554687 1.6822499999999998 5.493400268554687 1.6822499999999998 Q 5.470900268554687 1.6822499999999998 5.448775268554687 1.6901249999999999 Q 5.426650268554687 1.698 5.409025268554688 1.7156249999999997 Q 5.391400268554687 1.73325 5.380900268554687 1.761 Q 5.370400268554687 1.7887499999999998 5.370400268554687 1.8277499999999998 Q 5.370400268554687 1.8712499999999999 5.388025268554687 1.9042499999999998 Q 5.405650268554687 1.93725 5.437150268554687 1.9563749999999998 Q 5.468650268554687 1.9754999999999998 5.509900268554687 1.9754999999999998 Q 5.536900268554687 1.9754999999999998 5.556400268554687 1.9687499999999998 Q 5.575900268554687 1.9619999999999997 5.589775268554687 1.9518749999999998 Q 5.603650268554687 1.9417499999999999 5.613400268554687 1.93125 Q 5.623150268554687 1.9244999999999999 5.632900268554687 1.9244999999999999 Q 5.643400268554688 1.9244999999999999 5.650900268554687 1.932 Q 5.658400268554687 1.9394999999999998 5.658400268554687 1.95 Q 5.658400268554687 1.9627499999999998 5.646400268554687 1.9725 Q 5.624650268554687 1.99575 5.589025268554687 2.013375 Q 5.553400268554687 2.0309999999999997 5.512150268554687 2.0309999999999997 M 5.936294677734375 2.0309999999999997 Q 5.876294677734375 2.0309999999999997 5.831294677734375 2.0055 Q 5.786294677734375 1.9799999999999998 5.761544677734375 1.9353749999999998 Q 5.736794677734375 1.89075 5.736794677734375 1.83225 Q 5.736794677734375 1.767 5.762669677734375 1.720875 Q 5.788544677734374 1.67475 5.829794677734375 1.650375 Q 5.871044677734375 1.626 5.917544677734375 1.626 Q 5.952794677734374 1.626 5.984669677734375 1.63875 Q 6.016544677734375 1.6515 6.041669677734375 1.6758749999999998 Q 6.066794677734375 1.7002499999999998 6.081794677734375 1.7343749999999998 Q 6.0967946777343744 1.7685 6.0975446777343745 1.8104999999999998 Q 6.0967946777343744 1.8224999999999998 6.087794677734375 1.8307499999999999 Q 6.078794677734375 1.839 6.066794677734375 1.839 L 5.7705446777343745 1.839 L 5.757044677734375 1.7872499999999998 L 6.045794677734374 1.7872499999999998 L 6.033794677734375 1.7977499999999997 L 6.033794677734375 1.7812499999999998 Q 6.031544677734375 1.7504999999999997 6.013919677734375 1.7283749999999998 Q 5.996294677734375 1.7062499999999998 5.970794677734375 1.6942499999999998 Q 5.945294677734375 1.6822499999999998 5.917544677734375 1.6822499999999998 Q 5.895044677734375 1.6822499999999998 5.872919677734375 1.6901249999999999 Q 5.850794677734375 1.698 5.833169677734375 1.7156249999999997 Q 5.8155446777343744 1.73325 5.805044677734375 1.761 Q 5.7945446777343745 1.7887499999999998 5.7945446777343745 1.8277499999999998 Q 5.7945446777343745 1.8712499999999999 5.812169677734374 1.9042499999999998 Q 5.829794677734375 1.93725 5.861294677734374 1.9563749999999998 Q 5.892794677734375 1.9754999999999998 5.9340446777343745 1.9754999999999998 Q 5.961044677734375 1.9754999999999998 5.9805446777343745 1.9687499999999998 Q 6.000044677734374 1.9619999999999997 6.013919677734375 1.9518749999999998 Q 6.0277946777343745 1.9417499999999999 6.037544677734375 1.93125 Q 6.047294677734374 1.9244999999999999 6.057044677734375 1.9244999999999999 Q 6.067544677734375 1.9244999999999999 6.0750446777343745 1.932 Q 6.082544677734375 1.9394999999999998 6.082544677734375 1.95 Q 6.082544677734375 1.9627499999999998 6.070544677734374 1.9725 Q 6.048794677734374 1.99575 6.013169677734375 2.013375 Q 5.977544677734374 2.0309999999999997 5.936294677734375 2.0309999999999997 M 6.169939086914062 1.638 L 6.3461890869140625 1.638 Q 6.358189086914062 1.638 6.366064086914062 1.6462499999999998 Q 6.373939086914063 1.6544999999999999 6.373939086914063 1.6657499999999998 Q 6.373939086914063 1.6777499999999999 6.366064086914062 1.685625 Q 6.358189086914062 1.6934999999999998 6.3461890869140625 1.6934999999999998 L 6.169939086914062 1.6934999999999998 Q 6.1586890869140625 1.6934999999999998 6.150439086914062 1.68525 Q 6.142189086914062 1.6769999999999998 6.142189086914062 1.6649999999999998 Q 6.142189086914062 1.6537499999999998 6.150439086914062 1.6458749999999998 Q 6.1586890869140625 1.638 6.169939086914062 1.638 M 6.248689086914062 1.5359999999999998 Q 6.261439086914062 1.5359999999999998 6.269689086914062 1.544625 Q 6.2779390869140625 1.5532499999999998 6.2779390869140625 1.5659999999999998 L 6.2779390869140625 1.9282499999999998 Q 6.2779390869140625 1.9462499999999998 6.283189086914062 1.95525 Q 6.288439086914062 1.9642499999999998 6.297064086914062 1.967625 Q 6.305689086914062 1.9709999999999999 6.313939086914062 1.9709999999999999 Q 6.321439086914062 1.9709999999999999 6.327064086914063 1.9683749999999998 Q 6.332689086914062 1.9657499999999999 6.340189086914062 1.9657499999999999 Q 6.3476890869140625 1.9657499999999999 6.354064086914062 1.972875 Q 6.360439086914062 1.9799999999999998 6.360439086914062 1.99125 Q 6.360439086914062 2.00475 6.344689086914062 2.014125 Q 6.328939086914062 2.0235 6.309439086914062 2.0235 Q 6.2989390869140625 2.0235 6.283564086914062 2.022 Q 6.268189086914062 2.0204999999999997 6.2531890869140625 2.01225 Q 6.238189086914062 2.004 6.228064086914062 1.984875 Q 6.217939086914062 1.9657499999999999 6.217939086914062 1.93125 L 6.217939086914062 1.5659999999999998 Q 6.217939086914062 1.5532499999999998 6.226939086914062 1.544625 Q 6.235939086914062 1.5359999999999998 6.248689086914062 1.5359999999999998 M 6.451560791015625 1.9619999999999997 Q 6.444810791015625 1.9522499999999998 6.445560791015625 1.9413749999999999 Q 6.446310791015625 1.9304999999999999 6.4583107910156246 1.9222499999999998 Q 6.465810791015625 1.9169999999999998 6.475935791015625 1.9177499999999998 Q 6.486060791015625 1.9184999999999999 6.494310791015625 1.9274999999999998 Q 6.515310791015625 1.9522499999999998 6.542310791015625 1.966875 Q 6.569310791015625 1.9814999999999998 6.608310791015625 1.9814999999999998 Q 6.626310791015625 1.9807499999999998 6.6443107910156245 1.9754999999999998 Q 6.662310791015625 1.9702499999999998 6.674685791015625 1.9571249999999998 Q 6.687060791015625 1.944 6.687060791015625 1.9222499999999998 Q 6.687060791015625 1.9012499999999999 6.674310791015625 1.8888749999999999 Q 6.661560791015625 1.8764999999999998 6.641310791015624 1.8686249999999998 Q 6.6210607910156245 1.86075 6.5970607910156245 1.85475 Q 6.572310791015624 1.8479999999999999 6.548310791015624 1.8393749999999998 Q 6.524310791015624 1.8307499999999999 6.5051857910156246 1.8176249999999998 Q 6.486060791015625 1.8044999999999998 6.474435791015625 1.784625 Q 6.462810791015625 1.7647499999999998 6.462810791015625 1.7362499999999998 Q 6.462810791015625 1.7025 6.4811857910156245 1.6777499999999999 Q 6.499560791015625 1.6529999999999998 6.530685791015625 1.6395 Q 6.561810791015625 1.626 6.5985607910156245 1.626 Q 6.6195607910156244 1.626 6.642435791015624 1.6308749999999999 Q 6.665310791015624 1.6357499999999998 6.687060791015625 1.6473749999999998 Q 6.708810791015625 1.6589999999999998 6.725310791015625 1.67925 Q 6.732060791015625 1.68675 6.732810791015625 1.698 Q 6.733560791015625 1.70925 6.723060791015625 1.7182499999999998 Q 6.7148107910156245 1.7242499999999998 6.704685791015625 1.7234999999999998 Q 6.694560791015625 1.7227499999999998 6.687810791015625 1.7159999999999997 Q 6.672060791015625 1.69725 6.648435791015625 1.687125 Q 6.624810791015625 1.6769999999999998 6.5963107910156245 1.6769999999999998 Q 6.578310791015625 1.6769999999999998 6.561060791015625 1.6822499999999998 Q 6.543810791015625 1.6874999999999998 6.532185791015625 1.6998749999999998 Q 6.520560791015625 1.7122499999999998 6.520560791015625 1.734 Q 6.521310791015625 1.7542499999999999 6.534060791015625 1.767 Q 6.546810791015625 1.77975 6.568560791015625 1.7876249999999998 Q 6.590310791015625 1.7954999999999999 6.616560791015625 1.803 Q 6.640560791015625 1.809 6.662685791015625 1.8168749999999998 Q 6.684810791015625 1.8247499999999999 6.702810791015625 1.8375 Q 6.720810791015625 1.85025 6.731310791015625 1.8701249999999998 Q 6.741810791015625 1.89 6.741810791015625 1.92 Q 6.741810791015625 1.9545 6.722310791015625 1.9796249999999997 Q 6.702810791015625 2.00475 6.670935791015625 2.0178749999999996 Q 6.639060791015625 2.0309999999999997 6.602310791015625 2.0309999999999997 Q 6.561060791015625 2.0309999999999997 6.520935791015625 2.01525 Q 6.4808107910156245 1.9994999999999998 6.451560791015625 1.9619999999999997 M 7.078578369140625 1.49775 Q 7.085328369140625 1.49775 7.093203369140625 1.5014999999999998 Q 7.101078369140625 1.5052499999999998 7.105578369140625 1.51125 L 7.304328369140625 1.8119999999999998 L 7.278078369140625 1.8112499999999998 L 7.479078369140625 1.51125 Q 7.4888283691406246 1.4969999999999999 7.504578369140625 1.49775 Q 7.516578369140625 1.4985 7.525578369140625 1.5067499999999998 Q 7.5345783691406245 1.5149999999999997 7.5345783691406245 1.5284999999999997 L 7.5345783691406245 1.9927499999999998 Q 7.5345783691406245 2.0055 7.525578369140625 2.0145 Q 7.516578369140625 2.0235 7.503078369140625 2.0235 Q 7.489578369140625 2.0235 7.480578369140625 2.0145 Q 7.471578369140625 2.0055 7.471578369140625 1.9927499999999998 L 7.471578369140625 1.5855 L 7.490328369140625 1.5892499999999998 L 7.313328369140625 1.8584999999999998 Q 7.308828369140625 1.8637499999999998 7.302453369140625 1.8675 Q 7.296078369140625 1.8712499999999999 7.289328369140625 1.8712499999999999 Q 7.282578369140625 1.8712499999999999 7.2758283691406245 1.8675 Q 7.269078369140625 1.8637499999999998 7.264578369140625 1.8584999999999998 L 7.0898283691406245 1.5892499999999998 L 7.105578369140625 1.56975 L 7.105578369140625 1.9927499999999998 Q 7.105578369140625 2.0055 7.097328369140625 2.0145 Q 7.0890783691406245 2.0235 7.076328369140625 2.0235 Q 7.063578369140625 2.0235 7.055703369140625 2.0145 Q 7.047828369140625 2.0055 7.047828369140625 1.9927499999999998 L 7.047828369140625 1.5284999999999997 Q 7.047828369140625 1.5164999999999997 7.056453369140625 1.5071249999999998 Q 7.0650783691406245 1.49775 7.078578369140625 1.49775 M 7.972184326171875 1.632 Q 7.985684326171875 1.632 7.993934326171875 1.6406249999999998 Q 8.002184326171875 1.6492499999999999 8.002184326171875 1.662 L 8.002184326171875 1.9927499999999998 Q 8.002184326171875 2.0055 7.993559326171875 2.0145 Q 7.984934326171875 2.0235 7.972184326171875 2.0235 Q 7.959434326171875 2.0235 7.950809326171875 2.0145 Q 7.9421843261718745 2.0055 7.9421843261718745 1.9927499999999998 L 7.9421843261718745 1.9214999999999998 L 7.956434326171875 1.92 Q 7.956434326171875 1.9364999999999999 7.945184326171875 1.956 Q 7.933934326171875 1.9754999999999998 7.914434326171875 1.9923749999999998 Q 7.8949343261718745 2.0092499999999998 7.868684326171875 2.0201249999999997 Q 7.842434326171875 2.0309999999999997 7.811684326171875 2.0309999999999997 Q 7.760684326171875 2.0309999999999997 7.719809326171875 2.004375 Q 7.678934326171875 1.97775 7.655684326171875 1.932 Q 7.632434326171875 1.8862499999999998 7.632434326171875 1.8277499999999998 Q 7.632434326171875 1.7685 7.656059326171875 1.7231249999999998 Q 7.679684326171875 1.6777499999999999 7.719809326171875 1.651875 Q 7.759934326171875 1.626 7.810184326171875 1.626 Q 7.842434326171875 1.626 7.870184326171875 1.6364999999999998 Q 7.897934326171875 1.6469999999999998 7.9185593261718745 1.6649999999999998 Q 7.939184326171875 1.6829999999999998 7.950434326171875 1.7047499999999998 Q 7.961684326171875 1.7265 7.961684326171875 1.7482499999999999 L 7.9421843261718745 1.74375 L 7.9421843261718745 1.662 Q 7.9421843261718745 1.6492499999999999 7.950809326171875 1.6406249999999998 Q 7.959434326171875 1.632 7.972184326171875 1.632 M 7.817684326171875 1.9754999999999998 Q 7.855184326171875 1.9754999999999998 7.884059326171875 1.956 Q 7.912934326171875 1.9364999999999999 7.929434326171875 1.903125 Q 7.945934326171875 1.8697499999999998 7.945934326171875 1.8277499999999998 Q 7.945934326171875 1.7864999999999998 7.929434326171875 1.7531249999999998 Q 7.912934326171875 1.71975 7.884059326171875 1.7006249999999998 Q 7.855184326171875 1.6814999999999998 7.817684326171875 1.6814999999999998 Q 7.780934326171875 1.6814999999999998 7.752059326171875 1.7002499999999998 Q 7.723184326171875 1.7189999999999999 7.7066843261718745 1.7519999999999998 Q 7.690184326171875 1.785 7.690184326171875 1.8277499999999998 Q 7.690184326171875 1.8697499999999998 7.7066843261718745 1.903125 Q 7.723184326171875 1.9364999999999999 7.752059326171875 1.956 Q 7.780934326171875 1.9754999999999998 7.817684326171875 1.9754999999999998 M 8.273315917968748 1.626 Q 8.30631591796875 1.626 8.334065917968749 1.6368749999999999 Q 8.36181591796875 1.6477499999999998 8.382440917968749 1.6649999999999998 Q 8.40306591796875 1.6822499999999998 8.414690917968748 1.7009999999999998 Q 8.426315917968749 1.71975 8.426315917968749 1.7362499999999998 L 8.411315917968748 1.7272499999999997 L 8.411315917968748 1.662 Q 8.411315917968748 1.6492499999999999 8.419940917968749 1.6406249999999998 Q 8.428565917968749 1.632 8.44131591796875 1.632 Q 8.45481591796875 1.632 8.463065917968748 1.6406249999999998 Q 8.471315917968749 1.6492499999999999 8.471315917968749 1.662 L 8.471315917968749 1.9905 Q 8.471315917968749 2.052 8.44544091796875 2.0925 Q 8.419565917968749 2.133 8.376065917968749 2.15325 Q 8.332565917968749 2.1734999999999998 8.279315917968749 2.1734999999999998 Q 8.25681591796875 2.1734999999999998 8.229440917968748 2.1675 Q 8.20206591796875 2.1614999999999998 8.181065917968748 2.152875 Q 8.16006591796875 2.14425 8.15481591796875 2.1352499999999996 Q 8.143565917968749 2.12775 8.140940917968749 2.118375 Q 8.138315917968749 2.109 8.143565917968749 2.1007499999999997 Q 8.151065917968749 2.0902499999999997 8.16156591796875 2.0902499999999997 Q 8.17206591796875 2.0902499999999997 8.188565917968749 2.097 Q 8.196065917968749 2.09925 8.21031591796875 2.1045 Q 8.224565917968748 2.10975 8.243315917968749 2.1138749999999997 Q 8.26206591796875 2.118 8.280065917968749 2.118 Q 8.34381591796875 2.118 8.377565917968749 2.084625 Q 8.411315917968748 2.05125 8.411315917968748 1.9965 L 8.411315917968748 1.9267499999999997 L 8.419565917968749 1.9304999999999999 Q 8.415065917968748 1.9514999999999998 8.40156591796875 1.9694999999999998 Q 8.38806591796875 1.9874999999999998 8.368190917968748 2.001375 Q 8.34831591796875 2.01525 8.323940917968748 2.023125 Q 8.29956591796875 2.0309999999999997 8.274815917968748 2.0309999999999997 Q 8.22231591796875 2.0309999999999997 8.180690917968748 2.00475 Q 8.139065917968749 1.9785 8.11469091796875 1.93275 Q 8.090315917968748 1.8869999999999998 8.090315917968748 1.8284999999999998 Q 8.090315917968748 1.7692499999999998 8.11469091796875 1.7234999999999998 Q 8.139065917968749 1.6777499999999999 8.180315917968748 1.651875 Q 8.22156591796875 1.626 8.273315917968748 1.626 M 8.281565917968749 1.6814999999999998 Q 8.242565917968749 1.6814999999999998 8.21256591796875 1.7006249999999998 Q 8.182565917968748 1.71975 8.16531591796875 1.7527499999999998 Q 8.148065917968749 1.7857499999999997 8.148065917968749 1.8284999999999998 Q 8.148065917968749 1.8697499999999998 8.16531591796875 1.903125 Q 8.182565917968748 1.9364999999999999 8.21256591796875 1.956 Q 8.242565917968749 1.9754999999999998 8.281565917968749 1.9754999999999998 Q 8.320565917968748 1.9754999999999998 8.35056591796875 1.9563749999999998 Q 8.380565917968749 1.93725 8.39781591796875 1.9042499999999998 Q 8.415065917968748 1.8712499999999999 8.415065917968748 1.8284999999999998 Q 8.415065917968748 1.785 8.39781591796875 1.7519999999999998 Q 8.380565917968749 1.7189999999999999 8.35056591796875 1.7002499999999998 Q 8.320565917968748 1.6814999999999998 8.281565917968749 1.6814999999999998 M 8.64120849609375 1.9927499999999998 Q 8.64120849609375 2.0055 8.63258349609375 2.0145 Q 8.62395849609375 2.0235 8.611208496093749 2.0235 Q 8.59770849609375 2.0235 8.58945849609375 2.0145 Q 8.58120849609375 2.0055 8.58120849609375 1.9927499999999998 L 8.58120849609375 1.6597499999999998 Q 8.58120849609375 1.6469999999999998 8.58983349609375 1.638375 Q 8.598458496093748 1.6297499999999998 8.611208496093749 1.6297499999999998 Q 8.62395849609375 1.6297499999999998 8.63258349609375 1.638375 Q 8.64120849609375 1.6469999999999998 8.64120849609375 1.6597499999999998 L 8.64120849609375 1.9927499999999998 M 8.611208496093749 1.5795 Q 8.59245849609375 1.5795 8.58345849609375 1.5719999999999998 Q 8.574458496093749 1.5644999999999998 8.574458496093749 1.5487499999999998 L 8.574458496093749 1.53825 Q 8.574458496093749 1.5225 8.58420849609375 1.5149999999999997 Q 8.59395849609375 1.5074999999999998 8.611958496093749 1.5074999999999998 Q 8.62995849609375 1.5074999999999998 8.63895849609375 1.5149999999999997 Q 8.647958496093748 1.5225 8.647958496093748 1.53825 L 8.647958496093748 1.5487499999999998 Q 8.647958496093748 1.5644999999999998 8.63858349609375 1.5719999999999998 Q 8.62920849609375 1.5795 8.611208496093749 1.5795 M 8.919089721679686 1.626 Q 8.957339721679686 1.626 8.988089721679687 1.6342499999999998 Q 9.018839721679687 1.6424999999999998 9.036839721679687 1.6567499999999997 Q 9.054839721679686 1.6709999999999998 9.054839721679686 1.6889999999999998 Q 9.054839721679686 1.69875 9.048464721679686 1.7077499999999999 Q 9.042089721679687 1.7167499999999998 9.030089721679687 1.7167499999999998 Q 9.020339721679687 1.7167499999999998 9.013964721679686 1.7129999999999999 Q 9.007589721679686 1.70925 9.001964721679686 1.70325 Q 8.996339721679687 1.69725 8.986589721679687 1.6927499999999998 Q 8.977589721679687 1.6874999999999998 8.960339721679686 1.6844999999999999 Q 8.943089721679687 1.6814999999999998 8.925089721679687 1.6814999999999998 Q 8.884589721679687 1.6814999999999998 8.853089721679687 1.7009999999999998 Q 8.821589721679686 1.7205 8.803964721679687 1.7534999999999998 Q 8.786339721679687 1.7864999999999998 8.786339721679687 1.8284999999999998 Q 8.786339721679687 1.8704999999999998 8.803589721679687 1.9034999999999997 Q 8.820839721679686 1.9364999999999999 8.851589721679687 1.956 Q 8.882339721679687 1.9754999999999998 8.922839721679686 1.9754999999999998 Q 8.949089721679687 1.9754999999999998 8.964464721679686 1.9709999999999999 Q 8.979839721679687 1.9665 8.991089721679687 1.9605 Q 9.003839721679686 1.9529999999999998 9.010964721679686 1.9454999999999998 Q 9.018089721679686 1.938 9.030839721679687 1.938 Q 9.043589721679687 1.938 9.050339721679686 1.9462499999999998 Q 9.057089721679686 1.9545 9.057089721679686 1.9665 Q 9.057089721679686 1.9799999999999998 9.038339721679687 1.9949999999999999 Q 9.019589721679687 2.01 8.987714721679687 2.0204999999999997 Q 8.955839721679686 2.0309999999999997 8.916089721679686 2.0309999999999997 Q 8.859089721679688 2.0309999999999997 8.816339721679686 2.004375 Q 8.773589721679686 1.97775 8.749964721679687 1.931625 Q 8.726339721679686 1.8855 8.726339721679686 1.8284999999999998 Q 8.726339721679686 1.7714999999999999 8.750714721679687 1.72575 Q 8.775089721679686 1.6799999999999997 8.818589721679686 1.6529999999999998 Q 8.862089721679686 1.626 8.919089721679686 1.626 M 9.154947509765623 2.02275 Q 9.139197509765625 2.02275 9.130572509765624 2.01375 Q 9.121947509765624 2.00475 9.121947509765624 1.9889999999999999 L 9.121947509765624 1.9739999999999998 Q 9.121947509765624 1.9574999999999998 9.130572509765624 1.9485 Q 9.139197509765625 1.9394999999999998 9.154947509765623 1.9394999999999998 L 9.160947509765624 1.9394999999999998 Q 9.177447509765624 1.9394999999999998 9.185697509765625 1.9485 Q 9.193947509765625 1.9574999999999998 9.193947509765625 1.9739999999999998 L 9.193947509765625 1.9889999999999999 Q 9.193947509765625 2.00475 9.185697509765625 2.01375 Q 9.177447509765624 2.02275 9.160947509765624 2.02275 L 9.154947509765623 2.02275" fill="#1a702d" fill-rule="nonzero"></path></g></g><defs><clipPath id="SvgjsClipPath1002"><path d=" M -3.4446617057724835 -1.1105147042723018 h 3.0446617057724836 v 4.2445294085446035 h -3.0446617057724836 Z"></path></clipPath><clipPath id="SvgjsClipPath1000ab57ceea-c48d-457a-97e7-5ed6d93acfb8"><path d=" M -3.4446617057724835 -1.1105147042723018 L -0.3999999999999999 -1.1105147042723018 L -0.3999999999999999 3.1340147042723014 L -3.4446617057724835 3.1340147042723014 Z"></path></clipPath></defs></svg>