<svg xmlns="http://www.w3.org/2000/svg" version="1.1" xmlns:xlink="http://www.w3.org/1999/xlink" viewBox="0 0 13.96236497192065 8.928558433445584"><g transform="matrix(1,0,0,1,0.925785757444701,6.131897676000883)"><g clip-path="url(#SvgjsClipPath1001)"><g clip-path="url(#SvgjsClipPath100070142216-0438-46e2-8db3-337e15ca9c86)"><path d=" M 7.749247098920571 -4.421906329683037 L 4.361546358110678 -4.421906329683037 L 4.361546358110678 -1.034205588873144 L 7.749247098920571 -1.034205588873144 Z M 4.3031385791504935 -4.480314108643222 L 4.3031385791504935 -0.9757978099129598 L 7.807654877880755 -0.9757978099129598 L 7.807654877880755 -4.480314108643222 Z" fill="#3f2305" transform="matrix(1,0,0,1,0,0)" fill-rule="evenodd"></path></g><g clip-path="url(#SvgjsClipPath100070142216-0438-46e2-8db3-337e15ca9c86)"><path d=" M 6.055396728515624 -5.123518313433443 L 3.6599343743602715 -2.728055959278091 L 6.055396728515624 -0.3325936051227383 L 8.450859082670977 -2.728055959278091 Z M 3.5773407692375327 -2.728055959278091 L 6.055396728515624 -0.25 L 8.533452687793716 -2.728055959278091 L 6.055396728515624 -5.206111918556182 Z" fill="#3f2305" transform="matrix(1,0,0,1,0,0)" fill-rule="evenodd"></path></g><g clip-path="url(#SvgjsClipPath100070142216-0438-46e2-8db3-337e15ca9c86)"><path d=" M 6.67538154896741 -5.041891150134823 L 3.741561537658892 -3.348040779729877 L 5.435411908063839 -0.4142207684213597 L 8.369231919372355 -2.108071138826306 Z M 3.6617681357701373 -3.369426402658447 L 5.414026285135268 -0.3344273665326041 L 8.44902532126111 -2.0866855158977353 L 6.69676717189598 -5.121684552023577 Z" fill="#3f2305" transform="matrix(1,0,0,1,0,0)" fill-rule="evenodd"></path></g><g clip-path="url(#SvgjsClipPath100070142216-0438-46e2-8db3-337e15ca9c86)"><path d=" M 8.369231919372355 -3.348040779729877 L 5.435411908063839 -5.041891150134823 L 3.741561537658892 -2.1080711388263054 L 6.675381548967409 -0.4142207684213597 Z M 5.414026285135268 -5.121684552023577 L 3.6617681357701373 -2.0866855158977353 L 6.69676717189598 -0.3344273665326041 L 8.44902532126111 -3.369426402658447 Z" fill="#3f2305" transform="matrix(1,0,0,1,0,0)" fill-rule="evenodd"></path></g><g clip-path="url(#SvgjsClipPath100070142216-0438-46e2-8db3-337e15ca9c86)"><path d=" M 7.253115515313503 -4.8025852861473375 L 3.9808674016463774 -3.925774746075971 L 4.8576779417177445 -0.6535266324088442 L 8.129926055384871 -1.5303371724802113 Z M 3.909400267780797 -3.9670839389171366 L 4.816368748876578 -0.5820594985432641 L 8.201393189250451 -1.4890279796390455 L 7.294424708154669 -4.874052420012918 Z" fill="#3f2305" transform="matrix(1,0,0,1,0,0)" fill-rule="evenodd"></path></g><g clip-path="url(#SvgjsClipPath100070142216-0438-46e2-8db3-337e15ca9c86)"><path d=" M 8.129926055384871 -3.925774746075971 L 4.8576779417177445 -4.8025852861473375 L 3.9808674016463774 -1.5303371724802113 L 7.253115515313503 -0.6535266324088442 Z M 4.816368748876578 -4.874052420012918 L 3.909400267780797 -1.4890279796390455 L 7.294424708154669 -0.5820594985432641 L 8.201393189250451 -3.9670839389171366 Z" fill="#3f2305" transform="matrix(1,0,0,1,0,0)" fill-rule="evenodd"></path></g><path d=" M 7.110072856871761 -2.543797180519476 L 7.138664736334305 -1.9973745952353048 C 7.092070562395344 -1.9190116663379628 7.029592010977193 -1.8480614469309091 6.951229082079851 -1.784523937014145 C 6.872866153182509 -1.7209864270973814 6.775441971310137 -1.6696269399146635 6.658956536462736 -1.6304454754659923 C 6.542471101615336 -1.591264011017321 6.40480649679568 -1.5716732787929857 6.245962722003769 -1.5716732787929857 C 5.987576848342263 -1.5737911957902107 5.7614892088884435 -1.6209148489784777 5.567699803642313 -1.7130442383577855 C 5.373910398396183 -1.8051736277370933 5.224067770842481 -1.937013960814379 5.118171920981208 -2.1085652375896418 C 5.012276071119934 -2.280116514364905 4.959328146189297 -2.487672380093001 4.959328146189297 -2.7312328347739294 C 4.959328146189297 -2.968439538463182 5.011217112621321 -3.1733480079447465 5.11499504548537 -3.345958243218622 C 5.218772978349417 -3.518568478492498 5.367556647404506 -3.651467770068396 5.561346052650637 -3.7446561179463167 C 5.755135457896768 -3.8378444658242374 5.98651788984365 -3.884438639763198 6.255493348491284 -3.884438639763198 C 6.4249267082693216 -3.884438639763198 6.576887252820249 -3.867495303785394 6.711374982144067 -3.8336086318297866 C 6.845862711467884 -3.799721959874179 6.957582833071527 -3.7584225784282825 7.046535346954997 -3.7097104874920963 L 7.052889097946673 -3.1664647777037636 L 7.024297218484129 -3.1664647777037636 C 6.967113459559043 -3.376138560429085 6.873925111681121 -3.525981187982787 6.744732174850368 -3.6159926603648693 C 6.615539238019614 -3.7060041327469517 6.464108172717993 -3.751009868937993 6.290438978945504 -3.751009868937993 C 6.121005619167467 -3.751009868937993 5.975928304857522 -3.7097104874920963 5.8552070360156705 -3.627111724600303 C 5.734485767173819 -3.54451296170851 5.641297419295898 -3.428027526861109 5.575641992381909 -3.277655420058101 C 5.509986565467919 -3.1272833132550923 5.477158852010924 -2.9472603684909275 5.477158852010924 -2.737586585765606 C 5.477158852010924 -2.5279128030402847 5.5083981277200005 -2.3468308997775074 5.570876679138152 -2.1943408759772733 C 5.633355230556303 -2.0418508521770393 5.722307744439773 -1.9232475003324132 5.837734220788561 -1.8385308204433946 C 5.953160697137349 -1.753814140554376 6.089236864209085 -1.709337883612641 6.245962722003769 -1.7051020496181901 C 6.409042330790131 -1.7051020496181901 6.5467069356097864 -1.7315760120835084 6.658956536462736 -1.784523937014145 C 6.771206137315686 -1.837471861944782 6.861747088947075 -1.925365417329639 6.930579391356902 -2.048204603168716 C 6.99941169376673 -2.1710437890077934 7.050771180949448 -2.33624131479138 7.084657852905055 -2.543797180519476 L 7.110072856871761 -2.543797180519476" fill="#3f2305" transform="matrix(1,0,0,1,0,0)" fill-rule="nonzero"></path></g><g><path d=" M 0.6 1.0199999999999998 Q 0.4455 1.0199999999999998 0.333 0.9569999999999999 Q 0.2205 0.8939999999999999 0.159 0.7844999999999999 Q 0.0975 0.6749999999999998 0.0975 0.5354999999999999 Q 0.0975 0.4274999999999999 0.1395 0.3314999999999999 Q 0.1815 0.23549999999999993 0.25425000000000003 0.16049999999999986 Q 0.327 0.08549999999999991 0.4215 0.042749999999999844 Q 0.516 -2.220446049250313e-16 0.6225 -2.220446049250313e-16 Q 0.6990000000000001 -2.220446049250313e-16 0.7515000000000001 0.009749999999999925 Q 0.804 0.01949999999999985 0.8452500000000001 0.03524999999999989 Q 0.8865000000000001 0.05099999999999982 0.9285 0.07199999999999984 L 0.9375 0.33899999999999986 L 0.9105 0.33899999999999986 L 0.807 0.1439999999999999 Q 0.756 0.10799999999999987 0.71475 0.09149999999999991 Q 0.6735 0.07499999999999984 0.6225 0.07499999999999984 Q 0.519 0.07499999999999984 0.4365 0.1289999999999999 Q 0.354 0.18299999999999983 0.30675 0.2782499999999999 Q 0.2595 0.37349999999999983 0.2595 0.4979999999999999 Q 0.2595 0.6375 0.30525 0.73725 Q 0.35100000000000003 0.8369999999999999 0.429 0.8894999999999998 Q 0.507 0.942 0.6015 0.942 Q 0.6795 0.942 0.73275 0.9209999999999999 Q 0.786 0.8999999999999999 0.8280000000000001 0.8714999999999999 L 0.9285 0.7034999999999999 L 0.9540000000000001 0.7034999999999999 L 0.936 0.9449999999999998 Q 0.87 0.9779999999999999 0.795 0.9989999999999999 Q 0.72 1.0199999999999998 0.6 1.0199999999999998 M 1.1714772949218752 1.005 L 1.1714772949218752 0.9809999999999999 L 1.2929772949218752 0.9209999999999999 L 1.2929772949218752 0.09899999999999987 L 1.1714772949218752 0.038999999999999924 L 1.1714772949218752 0.014999999999999902 L 1.5689772949218752 0.014999999999999902 L 1.5689772949218752 0.038999999999999924 L 1.4504772949218752 0.09899999999999987 L 1.4504772949218752 0.45299999999999985 L 1.9379772949218752 0.45299999999999985 L 1.9379772949218752 0.09899999999999987 L 1.8179772949218753 0.038999999999999924 L 1.8179772949218753 0.014999999999999902 L 2.2154772949218753 0.014999999999999902 L 2.2154772949218753 0.038999999999999924 L 2.093977294921875 0.09899999999999987 L 2.093977294921875 0.9209999999999999 L 2.2154772949218753 0.9809999999999999 L 2.2154772949218753 1.005 L 1.8179772949218753 1.005 L 1.8179772949218753 0.9809999999999999 L 1.9379772949218752 0.9209999999999999 L 1.9379772949218752 0.5354999999999999 L 1.4504772949218752 0.5354999999999999 L 1.4504772949218752 0.9209999999999999 L 1.5689772949218752 0.9809999999999999 L 1.5689772949218752 1.005 L 1.1714772949218752 1.005 M 2.3939458007812497 1.005 L 2.3939458007812497 0.9809999999999999 L 2.51544580078125 0.9209999999999999 L 2.51544580078125 0.09899999999999987 L 2.3939458007812497 0.038999999999999924 L 2.3939458007812497 0.014999999999999902 L 2.81094580078125 0.014999999999999902 Q 2.9684458007812498 0.014999999999999902 3.05919580078125 0.08024999999999982 Q 3.14994580078125 0.14549999999999985 3.14994580078125 0.25949999999999984 Q 3.14994580078125 0.3434999999999999 3.09294580078125 0.4079999999999999 Q 3.03594580078125 0.4724999999999999 2.94294580078125 0.5069999999999999 L 3.2264458007812498 0.9254999999999999 L 3.32694580078125 0.9809999999999999 L 3.32694580078125 1.005 L 3.0854458007812497 1.005 L 2.79744580078125 0.5489999999999999 L 2.6729458007812497 0.5489999999999999 L 2.6729458007812497 0.9194999999999999 L 2.78544580078125 0.9809999999999999 L 2.78544580078125 1.005 L 2.3939458007812497 1.005 M 2.76144580078125 0.09749999999999992 L 2.6729458007812497 0.09749999999999992 L 2.6729458007812497 0.4694999999999999 L 2.77044580078125 0.4694999999999999 Q 2.8634458007812498 0.4694999999999999 2.92419580078125 0.4162499999999999 Q 2.98494580078125 0.3629999999999999 2.98494580078125 0.28049999999999986 Q 2.98494580078125 0.19499999999999984 2.92569580078125 0.14624999999999988 Q 2.86644580078125 0.09749999999999992 2.76144580078125 0.09749999999999992 M 3.91798388671875 1.0199999999999998 Q 3.80998388671875 1.0199999999999998 3.71773388671875 0.9817499999999999 Q 3.62548388671875 0.9434999999999999 3.5572338867187496 0.8752499999999999 Q 3.4889838867187497 0.8069999999999999 3.4514838867187496 0.714 Q 3.41398388671875 0.6209999999999999 3.41398388671875 0.5099999999999999 Q 3.41398388671875 0.3989999999999999 3.4514838867187496 0.3059999999999998 Q 3.4889838867187497 0.21299999999999986 3.5572338867187496 0.14474999999999982 Q 3.62548388671875 0.0764999999999999 3.71773388671875 0.038249999999999895 Q 3.80998388671875 -2.220446049250313e-16 3.91798388671875 -2.220446049250313e-16 Q 4.02598388671875 -2.220446049250313e-16 4.11823388671875 0.038249999999999895 Q 4.21048388671875 0.0764999999999999 4.27873388671875 0.14474999999999982 Q 4.34698388671875 0.21299999999999986 4.3852338867187495 0.3059999999999998 Q 4.42348388671875 0.3989999999999999 4.42348388671875 0.5099999999999999 Q 4.42348388671875 0.6209999999999999 4.3852338867187495 0.714 Q 4.34698388671875 0.8069999999999999 4.27873388671875 0.8752499999999999 Q 4.21048388671875 0.9434999999999999 4.11823388671875 0.9817499999999999 Q 4.02598388671875 1.0199999999999998 3.91798388671875 1.0199999999999998 M 3.94798388671875 0.9449999999999998 Q 4.03948388671875 0.9449999999999998 4.10848388671875 0.8969999999999999 Q 4.17748388671875 0.8489999999999999 4.21648388671875 0.7619999999999999 Q 4.25548388671875 0.6749999999999998 4.25548388671875 0.5564999999999999 Q 4.25548388671875 0.4109999999999999 4.20748388671875 0.3022499999999999 Q 4.15948388671875 0.1934999999999999 4.07698388671875 0.13349999999999984 Q 3.9944838867187498 0.0734999999999999 3.89398388671875 0.0734999999999999 Q 3.8024838867187496 0.0734999999999999 3.73198388671875 0.12074999999999991 Q 3.66148388671875 0.16799999999999993 3.62173388671875 0.2549999999999999 Q 3.5819838867187497 0.34199999999999986 3.5819838867187497 0.4604999999999999 Q 3.5819838867187497 0.6059999999999999 3.6307338867187497 0.7154999999999999 Q 3.67948388671875 0.825 3.76273388671875 0.8849999999999999 Q 3.84598388671875 0.9449999999999998 3.94798388671875 0.9449999999999998 M 4.603451660156249 1.005 L 4.603451660156249 0.9809999999999999 L 4.72495166015625 0.9209999999999999 L 4.72495166015625 0.10199999999999987 L 4.6049516601562495 0.038999999999999924 L 4.6049516601562495 0.014999999999999902 L 4.8404516601562495 0.014999999999999902 L 5.41495166015625 0.7214999999999998 L 5.41495166015625 0.09749999999999992 L 5.260451660156249 0.038999999999999924 L 5.260451660156249 0.014999999999999902 L 5.63995166015625 0.014999999999999902 L 5.63995166015625 0.038999999999999924 L 5.5199516601562495 0.09749999999999992 L 5.5199516601562495 1.0125 L 5.45545166015625 1.0125 L 4.82995166015625 0.24449999999999983 L 4.82995166015625 0.9224999999999999 L 4.98445166015625 0.9809999999999999 L 4.98445166015625 1.005 L 4.603451660156249 1.005 M 6.323919433593749 1.0199999999999998 Q 6.21591943359375 1.0199999999999998 6.12366943359375 0.9817499999999999 Q 6.03141943359375 0.9434999999999999 5.96316943359375 0.8752499999999999 Q 5.89491943359375 0.8069999999999999 5.8574194335937495 0.714 Q 5.81991943359375 0.6209999999999999 5.81991943359375 0.5099999999999999 Q 5.81991943359375 0.3989999999999999 5.8574194335937495 0.3059999999999998 Q 5.89491943359375 0.21299999999999986 5.96316943359375 0.14474999999999982 Q 6.03141943359375 0.0764999999999999 6.12366943359375 0.038249999999999895 Q 6.21591943359375 -2.220446049250313e-16 6.323919433593749 -2.220446049250313e-16 Q 6.43191943359375 -2.220446049250313e-16 6.52416943359375 0.038249999999999895 Q 6.61641943359375 0.0764999999999999 6.68466943359375 0.14474999999999982 Q 6.75291943359375 0.21299999999999986 6.791169433593749 0.3059999999999998 Q 6.82941943359375 0.3989999999999999 6.82941943359375 0.5099999999999999 Q 6.82941943359375 0.6209999999999999 6.791169433593749 0.714 Q 6.75291943359375 0.8069999999999999 6.68466943359375 0.8752499999999999 Q 6.61641943359375 0.9434999999999999 6.52416943359375 0.9817499999999999 Q 6.43191943359375 1.0199999999999998 6.323919433593749 1.0199999999999998 M 6.35391943359375 0.9449999999999998 Q 6.44541943359375 0.9449999999999998 6.5144194335937495 0.8969999999999999 Q 6.5834194335937495 0.8489999999999999 6.62241943359375 0.7619999999999999 Q 6.66141943359375 0.6749999999999998 6.66141943359375 0.5564999999999999 Q 6.66141943359375 0.4109999999999999 6.61341943359375 0.3022499999999999 Q 6.56541943359375 0.1934999999999999 6.48291943359375 0.13349999999999984 Q 6.40041943359375 0.0734999999999999 6.299919433593749 0.0734999999999999 Q 6.2084194335937495 0.0734999999999999 6.1379194335937495 0.12074999999999991 Q 6.0674194335937495 0.16799999999999993 6.02766943359375 0.2549999999999999 Q 5.98791943359375 0.34199999999999986 5.98791943359375 0.4604999999999999 Q 5.98791943359375 0.6059999999999999 6.03666943359375 0.7154999999999999 Q 6.085419433593749 0.825 6.16866943359375 0.8849999999999999 Q 6.251919433593749 0.9449999999999998 6.35391943359375 0.9449999999999998 M 7.546352783203124 1.0199999999999998 Q 7.391852783203125 1.0199999999999998 7.279352783203125 0.9569999999999999 Q 7.166852783203125 0.8939999999999999 7.1053527832031245 0.7844999999999999 Q 7.043852783203125 0.6749999999999998 7.043852783203125 0.5354999999999999 Q 7.043852783203125 0.4274999999999999 7.085852783203125 0.3314999999999999 Q 7.127852783203124 0.23549999999999993 7.2006027832031245 0.16049999999999986 Q 7.273352783203125 0.08549999999999991 7.367852783203125 0.042749999999999844 Q 7.462352783203125 -2.220446049250313e-16 7.568852783203125 -2.220446049250313e-16 Q 7.6453527832031245 -2.220446049250313e-16 7.697852783203125 0.009749999999999925 Q 7.750352783203125 0.01949999999999985 7.791602783203125 0.03524999999999989 Q 7.8328527832031245 0.05099999999999982 7.874852783203124 0.07199999999999984 L 7.883852783203125 0.33899999999999986 L 7.8568527832031245 0.33899999999999986 L 7.753352783203125 0.1439999999999999 Q 7.702352783203125 0.10799999999999987 7.661102783203125 0.09149999999999991 Q 7.619852783203124 0.07499999999999984 7.568852783203125 0.07499999999999984 Q 7.465352783203125 0.07499999999999984 7.382852783203124 0.1289999999999999 Q 7.300352783203125 0.18299999999999983 7.253102783203125 0.2782499999999999 Q 7.205852783203125 0.37349999999999983 7.205852783203125 0.4979999999999999 Q 7.205852783203125 0.6375 7.251602783203125 0.73725 Q 7.297352783203125 0.8369999999999999 7.375352783203125 0.8894999999999998 Q 7.453352783203124 0.942 7.547852783203124 0.942 Q 7.625852783203125 0.942 7.679102783203125 0.9209999999999999 Q 7.732352783203124 0.8999999999999999 7.774352783203125 0.8714999999999999 L 7.874852783203124 0.7034999999999999 L 7.900352783203124 0.7034999999999999 L 7.882352783203125 0.9449999999999998 Q 7.816352783203125 0.9779999999999999 7.741352783203125 0.9989999999999999 Q 7.666352783203124 1.0199999999999998 7.546352783203124 1.0199999999999998 M 8.117830078125 1.005 L 8.117830078125 0.9809999999999999 L 8.239330078124999 0.9209999999999999 L 8.239330078124999 0.09899999999999987 L 8.117830078125 0.038999999999999924 L 8.117830078125 0.014999999999999902 L 8.534830078125 0.014999999999999902 Q 8.692330078125 0.014999999999999902 8.783080078125 0.08024999999999982 Q 8.873830078125 0.14549999999999985 8.873830078125 0.25949999999999984 Q 8.873830078125 0.3434999999999999 8.816830078125 0.4079999999999999 Q 8.759830078124999 0.4724999999999999 8.666830078124999 0.5069999999999999 L 8.950330078124999 0.9254999999999999 L 9.050830078125 0.9809999999999999 L 9.050830078125 1.005 L 8.809330078124999 1.005 L 8.521330078124999 0.5489999999999999 L 8.396830078125 0.5489999999999999 L 8.396830078125 0.9194999999999999 L 8.509330078125 0.9809999999999999 L 8.509330078125 1.005 L 8.117830078125 1.005 M 8.485330078125 0.09749999999999992 L 8.396830078125 0.09749999999999992 L 8.396830078125 0.4694999999999999 L 8.494330078125 0.4694999999999999 Q 8.587330078125 0.4694999999999999 8.648080078125 0.4162499999999999 Q 8.708830078125 0.3629999999999999 8.708830078125 0.28049999999999986 Q 8.708830078125 0.19499999999999984 8.649580078125 0.14624999999999988 Q 8.590330078125 0.09749999999999992 8.485330078125 0.09749999999999992 M 9.07786083984375 1.005 L 9.07786083984375 0.9809999999999999 L 9.17236083984375 0.9314999999999999 L 9.55786083984375 0.00749999999999984 L 9.64036083984375 0.00749999999999984 L 10.02136083984375 0.9269999999999999 L 10.12186083984375 0.9809999999999999 L 10.12186083984375 1.005 L 9.72586083984375 1.005 L 9.72586083984375 0.9809999999999999 L 9.857860839843749 0.9284999999999999 L 9.74686083984375 0.6584999999999999 L 9.385360839843749 0.6584999999999999 L 9.27586083984375 0.9299999999999999 L 9.40186083984375 0.9809999999999999 L 9.40186083984375 1.005 L 9.07786083984375 1.005 M 9.41986083984375 0.5759999999999998 L 9.71386083984375 0.5759999999999998 L 9.56686083984375 0.2144999999999999 L 9.41986083984375 0.5759999999999998 M 10.2553330078125 1.005 L 10.2553330078125 0.9809999999999999 L 10.376833007812499 0.9209999999999999 L 10.376833007812499 0.09899999999999987 L 10.2553330078125 0.038999999999999924 L 10.2553330078125 0.014999999999999902 L 10.993333007812499 0.014999999999999902 L 10.993333007812499 0.2729999999999999 L 10.9693330078125 0.2729999999999999 L 10.8748330078125 0.09749999999999992 L 10.5343330078125 0.09749999999999992 L 10.5343330078125 0.4544999999999999 L 10.7683330078125 0.4544999999999999 L 10.8448330078125 0.3284999999999999 L 10.8688330078125 0.3284999999999999 L 10.8688330078125 0.6569999999999998 L 10.8448330078125 0.6569999999999998 L 10.7683330078125 0.5339999999999998 L 10.5343330078125 0.5339999999999998 L 10.5343330078125 0.9209999999999999 L 10.6723330078125 0.9809999999999999 L 10.6723330078125 1.005 L 10.2553330078125 1.005 M 11.371304443359374 1.005 L 11.371304443359374 0.9809999999999999 L 11.522804443359375 0.9209999999999999 L 11.522804443359375 0.09749999999999992 L 11.285804443359375 0.09749999999999992 L 11.179304443359374 0.32399999999999984 L 11.155304443359375 0.32399999999999984 L 11.155304443359375 0.014999999999999902 L 12.046304443359375 0.014999999999999902 L 12.046304443359375 0.32399999999999984 L 12.022304443359374 0.32399999999999984 L 11.917304443359374 0.09749999999999992 L 11.678804443359374 0.09749999999999992 L 11.678804443359374 0.9209999999999999 L 11.831804443359374 0.9809999999999999 L 11.831804443359374 1.005 L 11.371304443359374 1.005" fill="#3f2305" fill-rule="nonzero"></path></g><g><path d=" M 0.38148101806640516 1.8633749999999996 L 0.38148101806640516 1.8513749999999995 L 0.44148101806640516 1.8213749999999995 L 0.44148101806640516 1.4103749999999995 L 0.38148101806640516 1.3803749999999995 L 0.38148101806640516 1.3683749999999995 L 0.7482310180664051 1.3683749999999995 L 0.7482310180664051 1.4973749999999995 L 0.7362310180664051 1.4973749999999995 L 0.6897310180664051 1.4096249999999997 L 0.5089810180664052 1.4096249999999997 L 0.5089810180664052 1.5873749999999995 L 0.6364810180664051 1.5873749999999995 L 0.6739810180664052 1.5251249999999996 L 0.6859810180664052 1.5251249999999996 L 0.6859810180664052 1.6893749999999996 L 0.6739810180664052 1.6893749999999996 L 0.6364810180664051 1.6286249999999995 L 0.5089810180664052 1.6286249999999995 L 0.5089810180664052 1.8221249999999996 L 0.7107310180664052 1.8221249999999996 L 0.7572310180664051 1.7268749999999995 L 0.7692310180664051 1.7268749999999995 L 0.7692310180664051 1.8633749999999996 L 0.38148101806640516 1.8633749999999996 M 0.8723391723632801 1.8633749999999996 L 0.8723391723632801 1.8513749999999995 L 0.9323391723632801 1.8213749999999995 L 0.9323391723632801 1.4103749999999995 L 0.8723391723632801 1.3803749999999995 L 0.8723391723632801 1.3683749999999995 L 1.0673391723632801 1.3683749999999995 L 1.0673391723632801 1.3803749999999995 L 0.9998391723632801 1.4103749999999995 L 0.9998391723632801 1.8221249999999996 L 1.18208917236328 1.8221249999999996 L 1.2330891723632802 1.6968749999999995 L 1.2450891723632802 1.6968749999999995 L 1.2450891723632802 1.8633749999999996 L 0.8723391723632801 1.8633749999999996 M 1.3407211303710926 1.8633749999999996 L 1.3407211303710926 1.8513749999999995 L 1.4007211303710925 1.8213749999999995 L 1.4007211303710925 1.4103749999999995 L 1.3407211303710926 1.3803749999999995 L 1.3407211303710926 1.3683749999999995 L 1.7074711303710925 1.3683749999999995 L 1.7074711303710925 1.4973749999999995 L 1.6954711303710925 1.4973749999999995 L 1.6489711303710926 1.4096249999999997 L 1.4682211303710926 1.4096249999999997 L 1.4682211303710926 1.5873749999999995 L 1.5957211303710925 1.5873749999999995 L 1.6332211303710926 1.5251249999999996 L 1.6452211303710926 1.5251249999999996 L 1.6452211303710926 1.6893749999999996 L 1.6332211303710926 1.6893749999999996 L 1.5957211303710925 1.6286249999999995 L 1.4682211303710926 1.6286249999999995 L 1.4682211303710926 1.8221249999999996 L 1.6699711303710925 1.8221249999999996 L 1.7164711303710924 1.7268749999999995 L 1.7284711303710925 1.7268749999999995 L 1.7284711303710925 1.8633749999999996 L 1.3407211303710926 1.8633749999999996 M 2.0850792846679673 1.8708749999999996 Q 2.0130792846679673 1.8708749999999996 1.9564542846679673 1.8393749999999995 Q 1.8998292846679674 1.8078749999999995 1.8675792846679675 1.7534999999999996 Q 1.8353292846679674 1.6991249999999996 1.8353292846679674 1.6293749999999996 Q 1.8353292846679674 1.5716249999999996 1.8559542846679675 1.5228749999999995 Q 1.8765792846679674 1.4741249999999995 1.9137042846679675 1.4377499999999994 Q 1.9508292846679673 1.4013749999999996 1.9988292846679674 1.3811249999999995 Q 2.046829284667967 1.3608749999999996 2.1023292846679675 1.3608749999999996 Q 2.1413292846679672 1.3608749999999996 2.1690792846679674 1.3653749999999996 Q 2.1968292846679676 1.3698749999999995 2.2185792846679675 1.3781249999999996 Q 2.2403292846679674 1.3863749999999995 2.2620792846679674 1.3968749999999996 L 2.2658292846679675 1.5206249999999994 L 2.2538292846679675 1.5206249999999994 L 2.2050792846679674 1.4366249999999996 Q 2.1735792846679676 1.4148749999999994 2.1514542846679676 1.4066249999999996 Q 2.1293292846679677 1.3983749999999995 2.1008292846679675 1.3983749999999995 Q 2.0430792846679675 1.3983749999999995 1.9980792846679674 1.4234999999999995 Q 1.9530792846679674 1.4486249999999996 1.9275792846679674 1.4924999999999995 Q 1.9020792846679675 1.5363749999999996 1.9020792846679675 1.5918749999999995 Q 1.9020792846679675 1.6668749999999997 1.9294542846679674 1.7193749999999994 Q 1.9568292846679674 1.7718749999999996 2.0033292846679673 1.7996249999999996 Q 2.0498292846679673 1.8273749999999995 2.1068292846679673 1.8273749999999995 Q 2.1315792846679673 1.8273749999999995 2.1544542846679673 1.8243749999999996 Q 2.1773292846679673 1.8213749999999995 2.2020792846679673 1.8116249999999996 L 2.2020792846679673 1.6878749999999996 L 2.1353292846679675 1.6578749999999995 L 2.1353292846679675 1.6458749999999995 L 2.3213292846679674 1.6458749999999995 L 2.3213292846679674 1.6578749999999995 L 2.2695792846679677 1.6901249999999997 L 2.2695792846679677 1.8078749999999995 Q 2.2350792846679672 1.8363749999999996 2.1844542846679675 1.8536249999999996 Q 2.1338292846679674 1.8708749999999996 2.0850792846679673 1.8708749999999996 M 2.37044366455078 1.8633749999999996 L 2.37044366455078 1.8513749999999995 L 2.41844366455078 1.8266249999999995 L 2.61044366455078 1.3646249999999995 L 2.64419366455078 1.3646249999999995 L 2.83319366455078 1.8243749999999996 L 2.88344366455078 1.8513749999999995 L 2.88344366455078 1.8633749999999996 L 2.69744366455078 1.8633749999999996 L 2.69744366455078 1.8513749999999995 L 2.76344366455078 1.8258749999999995 L 2.70719366455078 1.6871249999999995 L 2.52494366455078 1.6871249999999995 L 2.46944366455078 1.8258749999999995 L 2.53244366455078 1.8513749999999995 L 2.53244366455078 1.8633749999999996 L 2.37044366455078 1.8633749999999996 M 2.54219366455078 1.6458749999999995 L 2.69069366455078 1.6458749999999995 L 2.61644366455078 1.4613749999999994 L 2.54219366455078 1.6458749999999995 M 2.95506866455078 1.8633749999999996 L 2.95506866455078 1.8513749999999995 L 3.01506866455078 1.8213749999999995 L 3.01506866455078 1.4118749999999995 L 2.95581866455078 1.3803749999999995 L 2.95581866455078 1.3683749999999995 L 3.06606866455078 1.3683749999999995 L 3.35256866455078 1.7283749999999996 L 3.35256866455078 1.4088749999999997 L 3.27756866455078 1.3803749999999995 L 3.27756866455078 1.3683749999999995 L 3.46431866455078 1.3683749999999995 L 3.46431866455078 1.3803749999999995 L 3.40506866455078 1.4096249999999997 L 3.40506866455078 1.8671249999999995 L 3.37731866455078 1.8671249999999995 L 3.0675686645507803 1.4763749999999995 L 3.0675686645507803 1.8221249999999996 L 3.14256866455078 1.8513749999999995 L 3.14256866455078 1.8633749999999996 L 2.95506866455078 1.8633749999999996 M 3.8112020874023425 1.8708749999999996 Q 3.7347020874023427 1.8708749999999996 3.679202087402343 1.8393749999999995 Q 3.6237020874023425 1.8078749999999995 3.5937020874023426 1.7534999999999996 Q 3.563702087402343 1.6991249999999996 3.563702087402343 1.6293749999999996 Q 3.563702087402343 1.5761249999999996 3.5843270874023427 1.5277499999999995 Q 3.6049520874023426 1.4793749999999997 3.6405770874023426 1.4418749999999996 Q 3.6762020874023427 1.4043749999999995 3.7230770874023427 1.3826249999999995 Q 3.7699520874023427 1.3608749999999996 3.8224520874023424 1.3608749999999996 Q 3.8599520874023425 1.3608749999999996 3.8862020874023426 1.3657499999999996 Q 3.9124520874023427 1.3706249999999995 3.9330770874023426 1.3784999999999996 Q 3.9537020874023425 1.3863749999999995 3.974702087402343 1.3968749999999996 L 3.9784520874023426 1.5281249999999995 L 3.9649520874023425 1.5281249999999995 L 3.9192020874023425 1.4366249999999996 Q 3.890702087402343 1.4163749999999995 3.8693270874023424 1.4073749999999996 Q 3.8479520874023425 1.3983749999999995 3.820952087402343 1.3983749999999995 Q 3.7669520874023426 1.3983749999999995 3.7245770874023427 1.4253749999999996 Q 3.6822020874023424 1.4523749999999995 3.6578270874023424 1.4992499999999995 Q 3.633452087402343 1.5461249999999995 3.633452087402343 1.6068749999999996 Q 3.633452087402343 1.6781249999999996 3.657077087402343 1.7287499999999996 Q 3.680702087402343 1.7793749999999995 3.7208270874023426 1.8059999999999996 Q 3.7609520874023428 1.8326249999999995 3.809702087402343 1.8326249999999995 Q 3.8509520874023426 1.8326249999999995 3.879077087402343 1.8209999999999995 Q 3.9072020874023425 1.8093749999999995 3.9289520874023425 1.7951249999999996 L 3.973952087402343 1.7148749999999995 L 3.9867020874023424 1.7148749999999995 L 3.9784520874023426 1.8341249999999996 Q 3.9567020874023426 1.8453749999999995 3.9338270874023427 1.8536249999999996 Q 3.9109520874023427 1.8618749999999995 3.8817020874023425 1.8663749999999995 Q 3.8524520874023427 1.8708749999999996 3.8112020874023425 1.8708749999999996 M 4.106336975097655 1.8633749999999996 L 4.106336975097655 1.8513749999999995 L 4.166336975097654 1.8213749999999995 L 4.166336975097654 1.4103749999999995 L 4.106336975097655 1.3803749999999995 L 4.106336975097655 1.3683749999999995 L 4.4730869750976545 1.3683749999999995 L 4.4730869750976545 1.4973749999999995 L 4.461086975097655 1.4973749999999995 L 4.414586975097655 1.4096249999999997 L 4.233836975097654 1.4096249999999997 L 4.233836975097654 1.5873749999999995 L 4.361336975097655 1.5873749999999995 L 4.398836975097654 1.5251249999999996 L 4.410836975097655 1.5251249999999996 L 4.410836975097655 1.6893749999999996 L 4.398836975097654 1.6893749999999996 L 4.361336975097655 1.6286249999999995 L 4.233836975097654 1.6286249999999995 L 4.233836975097654 1.8221249999999996 L 4.435586975097655 1.8221249999999996 L 4.482086975097655 1.7268749999999995 L 4.494086975097654 1.7268749999999995 L 4.494086975097654 1.8633749999999996 L 4.106336975097655 1.8633749999999996 M 4.79032012939453 1.8633749999999996 L 4.79032012939453 1.8513749999999995 L 4.85032012939453 1.8213749999999995 L 4.85032012939453 1.4103749999999995 L 4.79032012939453 1.3803749999999995 L 4.79032012939453 1.3683749999999995 L 4.97782012939453 1.3683749999999995 L 4.97782012939453 1.3803749999999995 L 4.91782012939453 1.4103749999999995 L 4.91782012939453 1.8213749999999995 L 4.97782012939453 1.8513749999999995 L 4.97782012939453 1.8633749999999996 L 4.79032012939453 1.8633749999999996 M 5.077206115722655 1.8633749999999996 L 5.077206115722655 1.8513749999999995 L 5.137206115722655 1.8213749999999995 L 5.137206115722655 1.4118749999999995 L 5.077956115722655 1.3803749999999995 L 5.077956115722655 1.3683749999999995 L 5.188206115722655 1.3683749999999995 L 5.474706115722655 1.7283749999999996 L 5.474706115722655 1.4088749999999997 L 5.399706115722655 1.3803749999999995 L 5.399706115722655 1.3683749999999995 L 5.586456115722655 1.3683749999999995 L 5.586456115722655 1.3803749999999995 L 5.527206115722655 1.4096249999999997 L 5.527206115722655 1.8671249999999995 L 5.499456115722655 1.8671249999999995 L 5.189706115722655 1.4763749999999995 L 5.189706115722655 1.8221249999999996 L 5.264706115722655 1.8513749999999995 L 5.264706115722655 1.8633749999999996 L 5.077206115722655 1.8633749999999996 M 5.871464538574218 1.8633749999999996 L 5.871464538574218 1.8513749999999995 L 5.931464538574217 1.8213749999999995 L 5.931464538574217 1.4103749999999995 L 5.871464538574218 1.3803749999999995 L 5.871464538574218 1.3683749999999995 L 6.238214538574217 1.3683749999999995 L 6.238214538574217 1.4973749999999995 L 6.226214538574218 1.4973749999999995 L 6.179714538574218 1.4096249999999997 L 5.998964538574217 1.4096249999999997 L 5.998964538574217 1.5873749999999995 L 6.126464538574218 1.5873749999999995 L 6.163964538574217 1.5251249999999996 L 6.175964538574218 1.5251249999999996 L 6.175964538574218 1.6893749999999996 L 6.163964538574217 1.6893749999999996 L 6.126464538574218 1.6286249999999995 L 5.998964538574217 1.6286249999999995 L 5.998964538574217 1.8221249999999996 L 6.200714538574218 1.8221249999999996 L 6.247214538574218 1.7268749999999995 L 6.259214538574217 1.7268749999999995 L 6.259214538574217 1.8633749999999996 L 5.871464538574218 1.8633749999999996 M 6.573065368652343 1.8671249999999995 L 6.384065368652343 1.4066249999999996 L 6.332315368652343 1.3803749999999995 L 6.332315368652343 1.3683749999999995 L 6.519815368652343 1.3683749999999995 L 6.519815368652343 1.3803749999999995 L 6.455315368652343 1.4081249999999996 L 6.455315368652343 1.4118749999999995 L 6.595565368652343 1.7553749999999995 L 6.599315368652343 1.7553749999999995 L 6.738815368652343 1.4088749999999997 L 6.738815368652343 1.4058749999999995 L 6.6773153686523425 1.3803749999999995 L 6.6773153686523425 1.3683749999999995 L 6.834815368652343 1.3683749999999995 L 6.834815368652343 1.3803749999999995 L 6.7920653686523424 1.4028749999999994 L 6.599315368652343 1.8671249999999995 L 6.573065368652343 1.8671249999999995 M 6.911683044433593 1.8633749999999996 L 6.911683044433593 1.8513749999999995 L 6.971683044433592 1.8213749999999995 L 6.971683044433592 1.4103749999999995 L 6.911683044433593 1.3803749999999995 L 6.911683044433593 1.3683749999999995 L 7.2784330444335925 1.3683749999999995 L 7.2784330444335925 1.4973749999999995 L 7.266433044433593 1.4973749999999995 L 7.219933044433593 1.4096249999999997 L 7.039183044433592 1.4096249999999997 L 7.039183044433592 1.5873749999999995 L 7.166683044433593 1.5873749999999995 L 7.204183044433592 1.5251249999999996 L 7.216183044433593 1.5251249999999996 L 7.216183044433593 1.6893749999999996 L 7.204183044433592 1.6893749999999996 L 7.166683044433593 1.6286249999999995 L 7.039183044433592 1.6286249999999995 L 7.039183044433592 1.8221249999999996 L 7.240933044433593 1.8221249999999996 L 7.287433044433593 1.7268749999999995 L 7.299433044433592 1.7268749999999995 L 7.299433044433592 1.8633749999999996 L 6.911683044433593 1.8633749999999996 M 7.402541198730468 1.8633749999999996 L 7.402541198730468 1.8513749999999995 L 7.4625411987304675 1.8213749999999995 L 7.4625411987304675 1.4103749999999995 L 7.402541198730468 1.3803749999999995 L 7.402541198730468 1.3683749999999995 L 7.596041198730468 1.3683749999999995 Q 7.674791198730468 1.3683749999999995 7.7201661987304675 1.4009999999999996 Q 7.765541198730467 1.4336249999999995 7.765541198730467 1.4906249999999996 Q 7.765541198730467 1.5326249999999995 7.737041198730468 1.5659999999999996 Q 7.708541198730468 1.5993749999999995 7.661291198730468 1.6166249999999995 L 7.803791198730468 1.8243749999999996 L 7.853291198730468 1.8513749999999995 L 7.853291198730468 1.8633749999999996 L 7.745291198730468 1.8633749999999996 L 7.599791198730468 1.6361249999999996 L 7.530041198730467 1.6361249999999996 L 7.530041198730467 1.8206249999999995 L 7.586291198730468 1.8513749999999995 L 7.586291198730468 1.8633749999999996 L 7.402541198730468 1.8633749999999996 M 7.5787911987304675 1.4096249999999997 L 7.530041198730467 1.4096249999999997 L 7.530041198730467 1.5948749999999996 L 7.583291198730468 1.5948749999999996 Q 7.630541198730468 1.5948749999999996 7.661666198730468 1.5682499999999995 Q 7.692791198730468 1.5416249999999996 7.692791198730468 1.5003749999999996 Q 7.692791198730468 1.4583749999999995 7.662041198730468 1.4339999999999995 Q 7.631291198730468 1.4096249999999997 7.5787911987304675 1.4096249999999997 M 7.999902282714843 1.8633749999999996 L 7.999902282714843 1.8513749999999995 L 8.067402282714843 1.8213749999999995 L 8.067402282714843 1.6323749999999995 L 7.900902282714843 1.4051249999999995 L 7.855152282714843 1.3803749999999995 L 7.855152282714843 1.3683749999999995 L 8.036652282714844 1.3683749999999995 L 8.036652282714844 1.3803749999999995 L 7.9819022827148425 1.4066249999999996 L 7.9819022827148425 1.4096249999999997 L 8.116152282714843 1.5918749999999995 L 8.236902282714842 1.4103749999999995 L 8.236902282714842 1.4073749999999996 L 8.182152282714842 1.3803749999999995 L 8.182152282714842 1.3683749999999995 L 8.341152282714843 1.3683749999999995 L 8.341152282714843 1.3803749999999995 L 8.293152282714843 1.4051249999999995 L 8.134902282714842 1.6316249999999997 L 8.134902282714842 1.8213749999999995 L 8.202402282714843 1.8513749999999995 L 8.202402282714843 1.8633749999999996 L 7.999902282714843 1.8633749999999996 M 8.756665466308593 1.8708749999999996 Q 8.710165466308593 1.8708749999999996 8.677915466308592 1.8622499999999995 Q 8.645665466308593 1.8536249999999996 8.611165466308593 1.8363749999999996 L 8.603665466308593 1.7133749999999996 L 8.615665466308593 1.7133749999999996 L 8.652415466308593 1.7928749999999996 Q 8.679415466308592 1.8153749999999995 8.704915466308593 1.8254999999999995 Q 8.730415466308592 1.8356249999999996 8.756665466308593 1.8356249999999996 Q 8.800915466308593 1.8356249999999996 8.826040466308593 1.8123749999999996 Q 8.851165466308593 1.7891249999999996 8.851165466308593 1.7493749999999995 Q 8.851165466308593 1.7163749999999995 8.836540466308593 1.6976249999999995 Q 8.821915466308592 1.6788749999999997 8.794540466308593 1.6642499999999996 Q 8.767165466308594 1.6496249999999995 8.729665466308592 1.6308749999999996 Q 8.694415466308593 1.6128749999999996 8.669665466308594 1.5956249999999996 Q 8.644915466308593 1.5783749999999994 8.632165466308592 1.5554999999999994 Q 8.619415466308594 1.5326249999999995 8.619415466308594 1.4981249999999995 Q 8.619415466308594 1.4726249999999996 8.631790466308592 1.4482499999999996 Q 8.644165466308593 1.4238749999999996 8.665540466308594 1.4039999999999995 Q 8.686915466308593 1.3841249999999996 8.713540466308594 1.3724999999999996 Q 8.740165466308593 1.3608749999999996 8.768665466308594 1.3608749999999996 Q 8.803165466308593 1.3608749999999996 8.832415466308593 1.3691249999999995 Q 8.861665466308594 1.3773749999999996 8.892415466308593 1.3923749999999995 L 8.899915466308594 1.5123749999999996 L 8.887915466308593 1.5123749999999996 L 8.853415466308594 1.4336249999999995 Q 8.827165466308593 1.4141249999999996 8.807665466308594 1.4054999999999995 Q 8.788165466308593 1.3968749999999996 8.762665466308594 1.3968749999999996 Q 8.729665466308592 1.3968749999999996 8.708290466308593 1.4193749999999996 Q 8.686915466308593 1.4418749999999996 8.686915466308593 1.4748749999999995 Q 8.686915466308593 1.5131249999999996 8.710165466308593 1.5344999999999995 Q 8.733415466308593 1.5558749999999995 8.782915466308593 1.5798749999999995 Q 8.828665466308593 1.6023749999999994 8.857915466308594 1.6214999999999995 Q 8.887165466308593 1.6406249999999996 8.901415466308594 1.6653749999999996 Q 8.915665466308592 1.6901249999999997 8.915665466308592 1.7283749999999996 Q 8.915665466308592 1.7636249999999996 8.900665466308594 1.7902499999999995 Q 8.885665466308593 1.8168749999999996 8.862040466308594 1.8348749999999996 Q 8.838415466308593 1.8528749999999996 8.810290466308594 1.8618749999999995 Q 8.782165466308593 1.8708749999999996 8.756665466308593 1.8708749999999996 M 9.007544860839843 1.8633749999999996 L 9.007544860839843 1.8513749999999995 L 9.067544860839844 1.8213749999999995 L 9.067544860839844 1.4103749999999995 L 9.007544860839843 1.3803749999999995 L 9.007544860839843 1.3683749999999995 L 9.374294860839843 1.3683749999999995 L 9.374294860839843 1.4973749999999995 L 9.362294860839842 1.4973749999999995 L 9.315794860839842 1.4096249999999997 L 9.135044860839843 1.4096249999999997 L 9.135044860839843 1.5873749999999995 L 9.262544860839844 1.5873749999999995 L 9.300044860839844 1.5251249999999996 L 9.312044860839842 1.5251249999999996 L 9.312044860839842 1.6893749999999996 L 9.300044860839844 1.6893749999999996 L 9.262544860839844 1.6286249999999995 L 9.135044860839843 1.6286249999999995 L 9.135044860839843 1.8221249999999996 L 9.336794860839843 1.8221249999999996 L 9.383294860839843 1.7268749999999995 L 9.395294860839844 1.7268749999999995 L 9.395294860839844 1.8633749999999996 L 9.007544860839843 1.8633749999999996 M 9.749653015136719 1.8708749999999996 Q 9.673153015136718 1.8708749999999996 9.617653015136717 1.8393749999999995 Q 9.562153015136719 1.8078749999999995 9.532153015136718 1.7534999999999996 Q 9.502153015136718 1.6991249999999996 9.502153015136718 1.6293749999999996 Q 9.502153015136718 1.5761249999999996 9.522778015136717 1.5277499999999995 Q 9.543403015136718 1.4793749999999997 9.579028015136718 1.4418749999999996 Q 9.614653015136717 1.4043749999999995 9.661528015136717 1.3826249999999995 Q 9.708403015136717 1.3608749999999996 9.760903015136718 1.3608749999999996 Q 9.798403015136719 1.3608749999999996 9.824653015136718 1.3657499999999996 Q 9.850903015136717 1.3706249999999995 9.871528015136718 1.3784999999999996 Q 9.892153015136719 1.3863749999999995 9.913153015136718 1.3968749999999996 L 9.916903015136718 1.5281249999999995 L 9.903403015136718 1.5281249999999995 L 9.857653015136718 1.4366249999999996 Q 9.829153015136718 1.4163749999999995 9.807778015136718 1.4073749999999996 Q 9.786403015136719 1.3983749999999995 9.759403015136717 1.3983749999999995 Q 9.705403015136719 1.3983749999999995 9.663028015136717 1.4253749999999996 Q 9.620653015136718 1.4523749999999995 9.596278015136718 1.4992499999999995 Q 9.571903015136717 1.5461249999999995 9.571903015136717 1.6068749999999996 Q 9.571903015136717 1.6781249999999996 9.595528015136718 1.7287499999999996 Q 9.619153015136717 1.7793749999999995 9.659278015136719 1.8059999999999996 Q 9.699403015136719 1.8326249999999995 9.748153015136719 1.8326249999999995 Q 9.789403015136719 1.8326249999999995 9.817528015136718 1.8209999999999995 Q 9.845653015136719 1.8093749999999995 9.867403015136718 1.7951249999999996 L 9.912403015136718 1.7148749999999995 L 9.925153015136718 1.7148749999999995 L 9.916903015136718 1.8341249999999996 Q 9.895153015136717 1.8453749999999995 9.872278015136718 1.8536249999999996 Q 9.849403015136717 1.8618749999999995 9.820153015136718 1.8663749999999995 Q 9.790903015136719 1.8708749999999996 9.749653015136719 1.8708749999999996 M 10.298287902832032 1.8708749999999996 Q 10.244287902832031 1.8708749999999996 10.198912902832031 1.8517499999999996 Q 10.153537902832031 1.8326249999999995 10.11978790283203 1.7984999999999995 Q 10.08603790283203 1.7643749999999996 10.06728790283203 1.7178749999999996 Q 10.048537902832031 1.6713749999999996 10.048537902832031 1.6158749999999995 Q 10.048537902832031 1.5603749999999996 10.06728790283203 1.5138749999999996 Q 10.08603790283203 1.4673749999999997 10.11978790283203 1.4332499999999995 Q 10.153537902832031 1.3991249999999995 10.198912902832031 1.3799999999999994 Q 10.244287902832031 1.3608749999999996 10.298287902832032 1.3608749999999996 Q 10.35228790283203 1.3608749999999996 10.39803790283203 1.3799999999999994 Q 10.44378790283203 1.3991249999999995 10.477537902832031 1.4332499999999995 Q 10.51128790283203 1.4673749999999997 10.530037902832031 1.5138749999999996 Q 10.54878790283203 1.5603749999999996 10.54878790283203 1.6158749999999995 Q 10.54878790283203 1.6713749999999996 10.530037902832031 1.7178749999999996 Q 10.51128790283203 1.7643749999999996 10.477537902832031 1.7984999999999995 Q 10.44378790283203 1.8326249999999995 10.39803790283203 1.8517499999999996 Q 10.35228790283203 1.8708749999999996 10.298287902832032 1.8708749999999996 M 10.31403790283203 1.8333749999999995 Q 10.36203790283203 1.8333749999999995 10.39841290283203 1.8093749999999995 Q 10.434787902832031 1.7853749999999995 10.45541290283203 1.7418749999999996 Q 10.476037902832031 1.6983749999999995 10.476037902832031 1.6391249999999995 Q 10.476037902832031 1.5663749999999996 10.45053790283203 1.5119999999999996 Q 10.425037902832031 1.4576249999999995 10.381912902832031 1.4276249999999995 Q 10.338787902832031 1.3976249999999997 10.285537902832031 1.3976249999999997 Q 10.237537902832031 1.3976249999999997 10.200412902832031 1.4212499999999997 Q 10.16328790283203 1.4448749999999997 10.142287902832031 1.4883749999999996 Q 10.12128790283203 1.5318749999999994 10.12128790283203 1.5911249999999995 Q 10.12128790283203 1.6638749999999995 10.147162902832031 1.7186249999999996 Q 10.17303790283203 1.7733749999999995 10.21653790283203 1.8033749999999995 Q 10.26003790283203 1.8333749999999995 10.31403790283203 1.8333749999999995 M 10.648168029785156 1.8633749999999996 L 10.648168029785156 1.8513749999999995 L 10.708168029785156 1.8213749999999995 L 10.708168029785156 1.4118749999999995 L 10.648918029785156 1.3803749999999995 L 10.648918029785156 1.3683749999999995 L 10.759168029785156 1.3683749999999995 L 11.045668029785157 1.7283749999999996 L 11.045668029785157 1.4088749999999997 L 10.970668029785156 1.3803749999999995 L 10.970668029785156 1.3683749999999995 L 11.157418029785156 1.3683749999999995 L 11.157418029785156 1.3803749999999995 L 11.098168029785155 1.4096249999999997 L 11.098168029785155 1.8671249999999995 L 11.070418029785156 1.8671249999999995 L 10.760668029785156 1.4763749999999995 L 10.760668029785156 1.8221249999999996 L 10.835668029785156 1.8513749999999995 L 10.835668029785156 1.8633749999999996 L 10.648168029785156 1.8633749999999996 M 11.245544128417968 1.8633749999999996 L 11.245544128417968 1.8513749999999995 L 11.305544128417969 1.8213749999999995 L 11.305544128417969 1.4103749999999995 L 11.245544128417968 1.3803749999999995 L 11.245544128417968 1.3683749999999995 L 11.465294128417968 1.3683749999999995 Q 11.54779412841797 1.3683749999999995 11.606294128417968 1.3976249999999997 Q 11.664794128417968 1.4268749999999994 11.695169128417968 1.4778749999999996 Q 11.725544128417969 1.5288749999999995 11.725544128417969 1.5933749999999995 Q 11.725544128417969 1.6518749999999995 11.705669128417968 1.7013749999999996 Q 11.68579412841797 1.7508749999999995 11.649794128417968 1.7868749999999995 Q 11.613794128417968 1.8228749999999996 11.565419128417968 1.8431249999999995 Q 11.517044128417968 1.8633749999999996 11.460044128417968 1.8633749999999996 L 11.245544128417968 1.8633749999999996 M 11.448044128417969 1.4096249999999997 L 11.373044128417968 1.4096249999999997 L 11.373044128417968 1.8221249999999996 L 11.459294128417968 1.8221249999999996 Q 11.519294128417968 1.8221249999999996 11.563169128417968 1.7969999999999995 Q 11.607044128417968 1.7718749999999996 11.630669128417969 1.7257499999999997 Q 11.654294128417968 1.6796249999999995 11.654294128417968 1.6166249999999995 Q 11.654294128417968 1.5543749999999996 11.630294128417969 1.5074999999999996 Q 11.606294128417968 1.4606249999999996 11.560169128417968 1.4351249999999995 Q 11.514044128417968 1.4096249999999997 11.448044128417969 1.4096249999999997" fill="#3f2305" fill-rule="nonzero"></path></g></g><defs><clipPath id="SvgjsClipPath1001"><path d=" M 3.5773407692375327 -5.206111918556182 h 4.956111918556182 v 4.956111918556182 h -4.956111918556182 Z"></path></clipPath><clipPath id="SvgjsClipPath100070142216-0438-46e2-8db3-337e15ca9c86"><path d=" M 3.5773407692375327 -5.206111918556182 L 8.533452687793716 -5.206111918556182 L 8.533452687793716 -0.25 L 3.5773407692375327 -0.25 Z"></path></clipPath></defs></svg>